<svg width="326" height="230" viewBox="0 0 326 230" fill="none" xmlns="http://www.w3.org/2000/svg">
<path d="M146.799 193.9L143.399 194.8L139.799 192.6L136.799 192.1L134.899 195L134.299 200.4L132.199 204.4L131.699 209.7L134.699 209.9L135.499 210.2L142.099 205.9L142.699 207.6L146.699 202.7L149.899 200.5L154.399 193.2L151.599 192.7L146.799 193.9Z" fill="#E5B16C" stroke="#E5B16C" stroke-linejoin="round"/>
<path d="M222.399 106.2L224.099 102.3L225.199 98.5996V93.4996L222.399 88.3997L220.499 85.8997L217.599 81.9996L218.299 75.2996L216.799 76.2996L215.199 73.4996L212.699 74.8997L212.099 67.9996L209.899 63.9996L210.899 62.4996L207.799 59.6996L204.599 56.6996L199.299 53.3997L198.399 49.0996L199.699 45.7996L199.299 40.2996L197.999 39.5996L197.799 36.3997L197.599 30.8997L198.699 28.0996L196.399 25.5996L194.999 22.8997L191.099 25.2996L189.899 20.2996L190.399 17.9996L190.499 14.3997L188.899 11.1996L188.999 8.49963L187.699 7.69965L187.799 3.79962L186.599 0.599609L184.299 2.99963L183.899 4.79962L182.399 8.29962L180.599 11.6996L181.199 13.7996L179.999 15.0996L178.499 19.8997L178.599 23.5996L177.899 25.3997L178.199 28.4996L175.599 33.4996L174.299 36.9996L172.599 39.8997L170.899 43.2996L166.799 45.3997L161.899 43.2996L161.399 41.2996L158.899 39.6996H157.299L153.999 35.8997L151.499 33.6996L147.599 31.6996L143.699 28.1996L143.599 26.3997L146.099 23.2996L148.199 20.0996L147.899 17.4996L149.799 17.2996L152.299 14.7996L154.299 11.3997L152.099 8.19965L150.599 9.39966L148.599 8.89966L145.099 10.6996L141.899 8.69965L140.199 9.39966L135.699 7.79962L132.999 5.09961L129.499 3.59961L126.399 4.49963L130.299 6.59961L129.999 9.79962L125.199 10.9996L122.399 10.2996L118.799 12.4996L115.899 16.1996L116.499 17.6996L113.799 19.3997L110.399 24.4996L110.999 27.9996L107.599 27.3997H104.099L101.599 23.5996L97.8993 20.6996L95.0992 21.4996L92.4993 22.3997L92.1992 23.9996L89.7993 23.2996L89.4993 25.0996L86.4993 26.1996L84.7993 28.6996L81.2993 31.7996L79.8993 36.5996L77.5992 35.2996L75.3993 38.3997L76.8993 41.3997L74.2993 42.5996L72.8993 37.0996L68.0992 42.4996L67.2993 45.9996L66.5992 48.4996L62.7993 51.7996L60.7993 55.1996L57.2993 57.9996L51.1992 59.8997L48.0992 59.6996L46.5992 60.2996L45.4993 61.6996L41.9993 62.3997L37.2993 64.7996L35.8993 63.9996L33.2993 64.4996L28.6992 66.7996L25.4993 69.4996L20.6992 71.5996L17.5992 75.9996L17.9993 71.1996L14.8993 75.7996L14.7993 79.4996L13.4993 82.6996L11.9993 84.1996L10.6992 87.8997L11.5992 89.7996L11.6992 91.7996L13.2993 96.7996L12.5992 100.1L11.5992 97.5996L9.29932 95.7996L9.69922 101.7L7.99927 98.8997L8.09924 101.7L9.89929 106.7L9.29932 111.7L10.9993 114.2L10.5992 116.1L11.4993 120.2L10.1992 123.8L9.89929 127.4L10.5992 133.9L9.89929 137.6L7.69922 142L7.09924 144.3L5.59924 145.8L2.69922 146.6L1.19922 150.3L3.59924 151.5L7.59924 155.6H11.1992L14.9993 155.9L18.2993 153.8L21.6992 152L23.0992 152.3L27.5992 148.9L31.3993 148.6L35.4993 147.9L39.6992 149.1L43.2993 148.5L47.8993 148.3L50.8993 145.7L53.1992 142.4L58.3993 140.9L65.2993 137.7L70.2993 138.1L77.1992 136L84.9993 133.7L94.7993 133.1L98.7993 136.2L102.499 136.4L107.799 140.2L106.199 141.7L107.999 144.1L109.299 148.7L107.699 152.1L110.599 154.7L114.899 149.6L119.199 147.5L125.899 142L124.299 146.7L120.899 149.9L118.399 153.6L113.999 157.1L119.199 155.9L123.899 151.5L122.999 156.3L119.799 159.4L124.499 160.2L125.799 162.8L125.399 166.1L123.899 171L125.299 175L129.299 176.9L132.099 177.3L134.499 178.3L137.999 180.1L145.199 175.4L148.699 174.2L145.999 177.6L148.599 178.7L151.299 181.5L155.999 178.8L159.799 176.3L166.099 173.6L172.099 173.4L176.299 171.1L177.199 169.1L180.199 164.6L184.099 159.8L187.699 156.6L192.099 151L195.399 147.9L199.799 142.9L205.199 139.8L210.199 134L213.299 129.5L214.699 125.9L218.499 120.2L220.599 117.3L223.099 111.6L222.399 106.2Z" fill="#E5B16C" stroke="#E5B16C" stroke-linejoin="round"/>
<path d="M322.598 172.1L317.998 174.6L314.798 174.1L311.898 172L314.198 167.1L312.998 165.3L310.098 169.7L310.498 162.9L312.398 157.2L309.298 155.5L308.498 151.9L306.198 152.4L305.798 157L306.598 162.7L307.498 165.4L306.598 166.5L305.998 170.9L303.598 175L299.398 180L294.098 182.2L292.398 184.6L296.098 187.1L295.298 190.6L288.398 195.7L289.798 196.6L289.398 198.2L295.298 195.7L301.198 191.5L305.698 188.1L307.298 186.9L308.798 184.2L311.598 182.2L315.398 182.4L319.598 178.6L324.698 172.9L322.598 172.1Z" fill="#E5B16C" stroke="#E5B16C" stroke-linejoin="round"/>
<path d="M281.698 193.401L282.598 190.801L276.798 193.701L273.398 197.101L270.198 198.701L264.298 203.301L258.698 206.501L251.698 209.701L246.198 212.101L241.898 213.201L230.598 219.301L224.198 223.901L223.098 226.201L228.198 226.601L229.698 228.701L234.198 228.801L238.198 227.001L244.498 224.201L252.598 218.001L257.298 213.901L263.498 211.601L267.498 211.501L268.098 208.601L272.698 206.101L279.698 201.601L283.898 198.701L285.998 196.101L286.498 193.501L280.898 196.001L281.698 193.401Z" fill="#E5B16C" stroke="#E5B16C" stroke-linejoin="round"/>
</svg>
