<svg width="616" height="419" viewBox="0 0 616 419" fill="none" xmlns="http://www.w3.org/2000/svg">
<path d="M435.8 189.801L432.5 194.601L430.6 200.901L432.1 205.601L436.1 211.001L437.4 205.801L438.6 195.601L438.7 191.701L435.8 189.801Z" fill="#DDBD9F" stroke="#DDBD9F" stroke-linejoin="round"/>
<path d="M30.5002 92.4992L28.0002 92.2992L24.5002 87.7992L21.1002 84.5992L18.5002 87.0992L18.0002 88.5992L15.6002 88.1992L11.3003 84.3992L9.80029 84.1992L8.7002 85.0992L11.9003 88.4992L11.3003 89.1992L8.50024 88.7992L4.30029 86.9992L3.2002 87.9992L4.60022 89.6992L6.80029 90.7992L6.10022 92.2992L9.2002 94.4992L8.2002 96.4992L10.7002 98.1992L13.2002 99.2992L14.1002 103.699L19.4003 98.9992L21.3003 98.4992L23.2002 100.399L22.0002 103.499L25.8003 106.899L27.1002 106.599L26.3003 103.399L28.0002 101.899L28.4003 99.6992L28.3003 94.6992L32.5002 94.1992L30.5002 92.4992Z" fill="#DDBD9F" stroke="#DDBD9F" stroke-linejoin="round"/>
<path d="M374.3 224.7L372.1 227.5L373.1 233L378 235L382.3 231.9L382.9 228.3L384.9 225.5L383.3 223L380.1 222.9L374.3 224.7Z" fill="#DDBD9F" stroke="#DDBD9F" stroke-linejoin="round"/>
<path d="M434.2 404.001L432.3 402.301L430.7 404.501L427.6 404.601L425.4 408.201L428.4 408.301L432.3 407.401L438.9 406.201L437.7 403.401L434.2 404.001Z" fill="#DDBD9F" stroke="#DDBD9F" stroke-linejoin="round"/>
<path d="M405 399.101L403.2 395.001L392.9 391.901L391.6 394.501L380.9 393.901L380.2 391.601L377.9 391.101L373.5 388.701L366.7 388.301L362.6 394.401L367.7 394.801L368.5 397.601L378.5 400.201L380.9 399.401L385 400.001L391.3 402.401L396.5 403.601L402.3 404.101L407.4 403.901L413.3 406.401L419.9 404.001L413.3 400.201L405 399.101Z" fill="#DDBD9F" stroke="#DDBD9F" stroke-linejoin="round"/>
<path d="M426.8 360.199L432.3 355.899L432.1 350.099L433.9 345.799L440.6 344.999L434.1 339.099L435 336.199L430.7 330.199L433.7 324.399L437.7 322.299L436.5 319.199L440.3 318.799L440.6 316.399L435.8 314.399L432 312.699L431.6 309.899L428.5 306.699H426.2L423.7 311.699L419.6 316.099L419.5 319.199L419.4 323.299L416.7 323.099L415.6 325.299L412.9 321.999L410.3 325.999L406.5 330.999L399.8 332.399L397.4 333.599L396.5 338.999L392.1 340.199L388 337.999L384.7 342.199L384.1 348.099L384.9 353.699L387.5 359.099L390.3 360.899L391 369.399L395.6 370.199L399.2 369.799L401.2 372.899L407.9 370.599L410.7 372.599L414.7 372.999L416.7 376.899L423.2 373.999L424 376.299L426.5 366.599L426.8 360.199Z" fill="#DDBD9F" stroke="#DDBD9F" stroke-linejoin="round"/>
<path d="M366.1 378.2L367.8 370.2L365.2 366.2L361.1 365.7L359.2 362.1L358.3 357.7L356.3 357.5L353.1 355.3L355.4 350.1L351.1 347.2L347.8 341.9L343 337.5L337.3 337.4L331.8 330.6L328.6 327.9L324.1 323.6L318.9 317.4L310.1 316.2L306.5 315.9L307.1 319.1L313.2 326.1L317.6 329.7L320.7 335.2L325.8 339.2L328 344.1L329.7 349.6L334.6 354.9L338.7 363.8L341.4 368.6L345.5 373.8L347.7 377.6L354.7 382.8L359.2 388.1L365.4 388L366.1 378.2Z" fill="#DDBD9F" stroke="#DDBD9F" stroke-linejoin="round"/>
<path d="M514.5 127.199L515.1 122.599L512.6 119.399L512 114.199L508.4 107.499L509.7 101.099L506.9 95.8992L498.8 87.1992L494 88.3992L494.2 92.2992L499.3 99.3992L500.3 107.299L498.6 109.799L494.1 116.299L489.1 113.199V124.699L482.8 123.399L473.2 125.299L471.3 129.699L467.4 132.999L466.3 136.999L462 138.999L466 143.299L470.1 145.199L471 150.899L474.5 153.399L477 150.699L476.2 139.899L468.9 135.199L475 135.099L480 132.099L488.6 130.699L491 135.499L495.6 137.899L500 130.599L509.1 130.199L514.5 127.199Z" fill="#DDBD9F" stroke="#DDBD9F" stroke-linejoin="round"/>
<path d="M490.7 74.8L485.5 75.2L486.1 79.9L490.7 86H496.4L494.8 79.2L505.6 83.4L506 77.3L512.4 75.6L506.4 68.7L504.7 71.3L500.2 70L494.9 67.9L484.5 61.5L486.4 66.3L490.7 74.8Z" fill="#DDBD9F" stroke="#DDBD9F" stroke-linejoin="round"/>
<path d="M310.9 243.1L314 248.3L316 256.4L318.6 264L321.2 267.3L321.4 274.2L323.6 278L322.3 282.8L323.2 287.6L321.9 293.7L321.6 297.6L322.8 301.2L323.5 297.4L326.4 300.5L329.6 304L330.7 307.2L333.1 309.6L334.5 312.3L334.1 317L336.2 320.4L337.2 325.7L340.6 330L341.4 333.2L348.1 338.2L353.5 343L357.5 342.5L357.6 340.4L355.3 334.8L353.2 333L352.7 329.2L352.1 327.1L352.6 324.2L352.1 319.9L349.5 315.6L346 311.8L344.7 311.2L341.6 307.9L338.2 307.1L334.9 303.5L333.5 298L330.9 292.2L327.2 292L326.5 287.4L327.9 281.8L330.1 272.5L329.9 265.5L334.8 265.4L334.5 270.4L339.2 270.3L344.5 273.2L347.9 279.8L350.5 283.1L355.2 284L359.7 287.7L358.4 292L360.7 296L367.3 290.1L371.4 284.8L377.5 280.7L381.8 276.5L381.4 265.3L377.4 253.6L373.3 248.5L367.7 244.5L361.3 236.2L356 229.5L356.5 225.1L360.2 219.1L366.7 213.6L369.1 212.6L376.8 214.6L375.9 217.1L378.1 221.7L381.1 221.3L381.9 214.6L387.5 213.7L394.7 210.5L397.2 207.3L399.5 209.4L402.3 206.5L408.4 205.8L415 200.5L421.3 194.6L424.6 187L426.9 178.6L429 171.7L431.8 171.2L431.7 166.1L430.9 161L427.1 159L424.6 155.6L427.4 153.9L425.8 149.2L420.4 144.3L415 138.5L410.4 132.2L403.3 128.7L404.2 124.1L408 120.9L409 117.4L415.7 115.6L413.3 112.2L409.9 112L404.1 109.5L400.2 114.1L395.3 112.2L393.8 109.3L389.1 108.3L384.4 103.9L385.6 100.9L390.6 100.6L391.8 96.4996L395.4 92.0996L398.8 89.8996L403.2 93.1996L401.3 97.3996L403.6 99.8996L402.2 102.9L407 101.1L409.4 98.1996L415.7 96.2996L419 97.9996L422.4 98.6996L423.2 99.6996L423.6 103.2L424.7 104.4L423.8 105.1L423.7 108L425.6 109L427.2 109.6L428 110.8L429.3 110.3V109L432.4 110.3L438.6 115.8L435.2 116.9L440.4 123.7L441.5 128.5L443.6 132L448.1 131.5L451.3 128.8L455.5 127.6L456 124L452.6 116.5L449.3 112.3L441.1 104.7L436.8 101.9L434.2 100.9L434.4 100.2L433.2 97.3996L434.5 95.6996L437.4 94.6996L438.4 92.7996L438.7 91.6996L440.6 90.2996L437.8 85.7996L438.1 83.6996L439 81.6996L441.2 81.9996L439.8 80.8996L437.9 77.7996L440.4 77.6996L436.6 70.3996L431.9 65.0996L434.8 62.8996L441.6 63.9996L441 57.9996L438.2 51.1996L438.6 48.8996L437.3 43.2996L430.4 45.0996L427.8 47.5996H420.3L414.3 41.7996L405.4 37.2996L395.5 35.3996L389.4 29.2996L385 25.5996L381.2 22.8996L373.5 16.7996L367.6 14.4996L359.1 12.6996L352.9 12.8996L347.8 13.9996L346.1 16.9996L349.8 18.4996L352.3 21.7996L351.1 23.7996L351.2 30.2996L353.1 32.9996L348.7 36.8996L341.4 34.5996L335.9 35.0996L332 32.9996L328.7 32.2996L324.2 36.6996L318.4 37.6996L314.8 39.2996L308.1 38.2996H303.6L298.7 35.1996L292.2 32.1996L286.8 31.3996L281.1 32.1996L277.2 33.2996L268.8 30.6996L265.1 26.0996L258.5 24.5996L253.7 23.7996L246.8 21.2996L245.5 27.6996L249.5 31.2996L247.1 35.5996L239.2 33.9996L234.2 33.7996L229.5 30.8996L224.4 30.7996L219.1 28.8996L213.2 31.7996L206.6 37.1996L201.9 38.1996L200.2 38.6996L195.9 34.8996L189.9 35.7996L186.6 33.1996L182.7 31.9996L178.6 28.3996L175.4 27.2996L169.2 28.8996L160.9 25.2996L159.8 28.5996L141.7 13.0996L133.4 8.39961L134.2 6.4996L125.1 12.1996L120.7 12.5996L119.5 9.29961L112.5 7.19962L108.2 8.69962L103.9 2.39961L94.9004 1.09961L91.8004 3.59961L81.0004 5.79961L79.3004 7.29961L62.5004 9.39961L61.1003 11.4996L66.1003 15.5996L62.2003 17.1996L63.7003 18.8996L60.1003 21.7996L69.5004 25.9996L69.3004 28.9996L62.4004 28.6996L61.6003 30.4996L54.3004 27.2996L46.7003 27.4996L42.4004 29.9996L35.8004 27.5996L23.9004 23.2996L16.4004 23.4996L8.30042 30.0996L9.00037 34.6996L3.00037 31.0996L0.900391 37.8996L2.60034 39.0996L0.900391 43.7996L6.20032 48.0996L9.80042 47.8996L14.0004 51.9996L14.2003 55.1996L17.0004 56.1996L21.4004 54.8996L26.4004 52.1996L31.1003 53.6996L36.0004 53.3996L37.9004 57.2996L38.5004 63.2996L33.9004 62.3996L29.9004 63.3996L30.8004 67.8996L25.8004 67.2996L26.4004 69.2996L29.6003 70.8996L33.3004 76.3996L39.7003 78.4996L41.2003 80.5996L40.5004 83.1996L41.2003 84.6996L43.7003 88.6996L43.2003 84.1996L46.9004 82.5996L49.3004 86.1996L53.9004 89.8996L49.9004 91.8996L44.6003 90.3996L44.7003 95.5996L48.2003 95.9996L47.8004 100.4L52.3004 102.5L53.0004 109.3L54.8004 113.8L59.2003 112.6L62.2003 108.9L65.7003 109.1L67.8004 107.9L71.6003 108.5L78.1003 111.8L82.4004 112.5L89.7003 118.2L93.6003 118.4L95.2003 123.9L94.7003 131.9L94.2003 136.6L96.7003 137.5L95.1003 141L97.8004 146.1L98.9004 150.1L103.2 151.2L104.3 155.2L100.4 161L103.6 164.3L106.4 168.2L112 170.9L113 176.6L115.7 177.6L116.6 180.5L109.2 183.8L108 191.2L115.6 190.3L124.5 190.2L134.4 189L139.3 193.8L141.4 198.4L145.6 200L152.7 205.4L154.6 207.9L152.2 210.2L160.2 217.9L164.2 218.7L171.8 214.9L173.5 220.8L174.3 228.6L176.8 236.7L180.4 249L186.2 257.8L187.5 261.7L189.5 269.7L192.9 275.8L195.1 278.8L197.6 285.2L200.7 294.1L206.2 300.1L208.4 298.3L210.1 293.9L215.1 292.1L213.3 290L215.5 285.2L218.4 284.9L217.7 274.1L219.6 268L218.9 262.7L217 254.5L218.2 249.6L220.7 249.3L225.5 247L228.1 245.4L227.8 242.5L232.8 238.3L236.5 234.3L241.8 226.8L249.2 222.6L251.6 218.8L250.7 214L257.3 212.7L261 212.8L261.5 210.4L259.9 205.2L257.3 200.4L257.7 196.6L254 194.9L254.8 192.6L257.9 190.2L253.3 186.8L254.5 182.5L259.3 185.2L262 185.6L263.2 190L268.6 190.9L273.6 190.8L277 191.9L275.4 197.2L273 197.6L271.9 201.2L275.4 204.5L275.6 200.5L277.1 200.4L281.6 210.5L282.1 215.1L280 214.1L281.1 219.2L285.7 224.4L289.1 225.3L288.7 227.5L294.1 234.9L296 240.8L295.1 248.7L298.7 250.2L301.9 250.8L307.7 246.2L310.9 243.1ZM365.7 281L359.9 281.5L365.7 281ZM324.9 218.5L329 214.4L329.7 215.9L332.6 216L330.7 208.8L333.4 207.8L337.4 212.9L340.8 218.6L347.6 218.7L350.6 224.2L347.3 225.9L346 228.2L353.3 232L359 239.5L363.3 245.1L368.1 249.5L370.1 254L369.9 260.4L364.7 258.1L362.7 262.4L357.8 260L359.3 257.1L358.8 251.7L353.6 246.2L352.3 239.9L347.4 234.7L343.1 234.3L342.3 236.5L339.1 236.7L337.3 235.5L332 239.3L331 233.6L331.4 226.9L327.6 226.6L326.7 222.8L324.1 220.9L324.9 218.5ZM182.1 82.5996L175.3 85.9996L174.3 88.3996L167.9 89.1996L167.3 93.1996L161.6 92.2996L158.4 93.4996L154.4 96.4996L155.5 97.9996L154.5 99.4996L145 100.4L137.9 98.3996L132.5 98.8996L131.9 95.1996L137.8 96.2996L139.2 94.2996L143.3 94.8996L148.5 90.3996L141.4 87.0996L138.2 88.6996L133.6 86.3996L136.7 82.2996L134.9 81.6996L135.2 78.9996L138.3 78.1996L147.4 80.2996L146.9 76.6996L149.4 75.3996L157.5 77.9996L159.1 77.2996L167.7 77.4996L175.5 78.0996L178.8 80.2996L182.3 81.1996L182.1 82.5996ZM251.8 182.7L247.2 182.8L240.4 181.3L236.1 180.7L232.3 177.5L224.7 176.6L217 173.1L211.2 170L205.5 167.5L206.4 161.6L209.2 158.7L211.1 157.2L215.8 159.2L222.2 163.3L225.4 164.2L227.9 167.3L232.4 168.5L237.4 171.3L243.8 172.8L250.3 173.4L250.4 176.1L251.9 180.2L251.8 182.7ZM274 173.3L269.8 174.1L272.5 176.1L272.9 180L268.5 180.2L263.8 179.8L260.6 180.8L255.1 178.3L254.8 177.1L257.4 172.3L260 170.7L264.2 172.2L267.1 172.3L269.8 174.1L274 173.3L277.9 168.5L274 173.3Z" fill="#DDBD9F"/>
<path d="M274 173.3L269.8 174.1L272.5 176.1L272.9 180L268.5 180.2L263.8 179.8L260.6 180.8L255.1 178.3L254.8 177.1L257.4 172.3L260 170.7L264.2 172.2L267.1 172.3L269.8 174.1L274 173.3ZM274 173.3L277.9 168.5L274 173.3ZM310.9 243.1L314 248.3L316 256.4L318.6 264L321.2 267.3L321.4 274.2L323.6 278L322.3 282.8L323.2 287.6L321.9 293.7L321.6 297.6L322.8 301.2L323.5 297.4L326.4 300.5L329.6 304L330.7 307.2L333.1 309.6L334.5 312.3L334.1 317L336.2 320.4L337.2 325.7L340.6 330L341.4 333.2L348.1 338.2L353.5 343L357.5 342.5L357.6 340.4L355.3 334.8L353.2 333L352.7 329.2L352.1 327.1L352.6 324.2L352.1 319.9L349.5 315.6L346 311.8L344.7 311.2L341.6 307.9L338.2 307.1L334.9 303.5L333.5 298L330.9 292.2L327.2 292L326.5 287.4L327.9 281.8L330.1 272.5L329.9 265.5L334.8 265.4L334.5 270.4L339.2 270.3L344.5 273.2L347.9 279.8L350.5 283.1L355.2 284L359.7 287.7L358.4 292L360.7 296L367.3 290.1L371.4 284.8L377.5 280.7L381.8 276.5L381.4 265.3L377.4 253.6L373.3 248.5L367.7 244.5L361.3 236.2L356 229.5L356.5 225.1L360.2 219.1L366.7 213.6L369.1 212.6L376.8 214.6L375.9 217.1L378.1 221.7L381.1 221.3L381.9 214.6L387.5 213.7L394.7 210.5L397.2 207.3L399.5 209.4L402.3 206.5L408.4 205.8L415 200.5L421.3 194.6L424.6 187L426.9 178.6L429 171.7L431.8 171.2L431.7 166.1L430.9 161L427.1 159L424.6 155.6L427.4 153.9L425.8 149.2L420.4 144.3L415 138.5L410.4 132.2L403.3 128.7L404.2 124.1L408 120.9L409 117.4L415.7 115.6L413.3 112.2L409.9 112L404.1 109.5L400.2 114.1L395.3 112.2L393.8 109.3L389.1 108.3L384.4 103.9L385.6 100.9L390.6 100.6L391.8 96.4996L395.4 92.0996L398.8 89.8996L403.2 93.1996L401.3 97.3996L403.6 99.8996L402.2 102.9L407 101.1L409.4 98.1996L415.7 96.2996L419 97.9996L422.4 98.6996L423.2 99.6996L423.6 103.2L424.7 104.4L423.8 105.1L423.7 108L425.6 109L427.2 109.6L428 110.8L429.3 110.3V109L432.4 110.3L438.6 115.8L435.2 116.9L440.4 123.7L441.5 128.5L443.6 132L448.1 131.5L451.3 128.8L455.5 127.6L456 124L452.6 116.5L449.3 112.3L441.1 104.7L436.8 101.9L434.2 100.9L434.4 100.2L433.2 97.3996L434.5 95.6996L437.4 94.6996L438.4 92.7996L438.7 91.6996L440.6 90.2996L437.8 85.7996L438.1 83.6996L439 81.6996L441.2 81.9996L439.8 80.8996L437.9 77.7996L440.4 77.6996L436.6 70.3996L431.9 65.0996L434.8 62.8996L441.6 63.9996L441 57.9996L438.2 51.1996L438.6 48.8996L437.3 43.2996L430.4 45.0996L427.8 47.5996H420.3L414.3 41.7996L405.4 37.2996L395.5 35.3996L389.4 29.2996L385 25.5996L381.2 22.8996L373.5 16.7996L367.6 14.4996L359.1 12.6996L352.9 12.8996L347.8 13.9996L346.1 16.9996L349.8 18.4996L352.3 21.7996L351.1 23.7996L351.2 30.2996L353.1 32.9996L348.7 36.8996L341.4 34.5996L335.9 35.0996L332 32.9996L328.7 32.2996L324.2 36.6996L318.4 37.6996L314.8 39.2996L308.1 38.2996H303.6L298.7 35.1996L292.2 32.1996L286.8 31.3996L281.1 32.1996L277.2 33.2996L268.8 30.6996L265.1 26.0996L258.5 24.5996L253.7 23.7996L246.8 21.2996L245.5 27.6996L249.5 31.2996L247.1 35.5996L239.2 33.9996L234.2 33.7996L229.5 30.8996L224.4 30.7996L219.1 28.8996L213.2 31.7996L206.6 37.1996L201.9 38.1996L200.2 38.6996L195.9 34.8996L189.9 35.7996L186.6 33.1996L182.7 31.9996L178.6 28.3996L175.4 27.2996L169.2 28.8996L160.9 25.2996L159.8 28.5996L141.7 13.0996L133.4 8.39961L134.2 6.4996L125.1 12.1996L120.7 12.5996L119.5 9.29961L112.5 7.19962L108.2 8.69962L103.9 2.39961L94.9004 1.09961L91.8004 3.59961L81.0004 5.79961L79.3004 7.29961L62.5004 9.39961L61.1003 11.4996L66.1003 15.5996L62.2003 17.1996L63.7003 18.8996L60.1003 21.7996L69.5004 25.9996L69.3004 28.9996L62.4004 28.6996L61.6003 30.4996L54.3004 27.2996L46.7003 27.4996L42.4004 29.9996L35.8004 27.5996L23.9004 23.2996L16.4004 23.4996L8.30042 30.0996L9.00037 34.6996L3.00037 31.0996L0.900391 37.8996L2.60034 39.0996L0.900391 43.7996L6.20032 48.0996L9.80042 47.8996L14.0004 51.9996L14.2003 55.1996L17.0004 56.1996L21.4004 54.8996L26.4004 52.1996L31.1003 53.6996L36.0004 53.3996L37.9004 57.2996L38.5004 63.2996L33.9004 62.3996L29.9004 63.3996L30.8004 67.8996L25.8004 67.2996L26.4004 69.2996L29.6003 70.8996L33.3004 76.3996L39.7003 78.4996L41.2003 80.5996L40.5004 83.1996L41.2003 84.6996L43.7003 88.6996L43.2003 84.1996L46.9004 82.5996L49.3004 86.1996L53.9004 89.8996L49.9004 91.8996L44.6003 90.3996L44.7003 95.5996L48.2003 95.9996L47.8004 100.4L52.3004 102.5L53.0004 109.3L54.8004 113.8L59.2003 112.6L62.2003 108.9L65.7003 109.1L67.8004 107.9L71.6003 108.5L78.1003 111.8L82.4004 112.5L89.7003 118.2L93.6003 118.4L95.2003 123.9L94.7003 131.9L94.2003 136.6L96.7003 137.5L95.1003 141L97.8004 146.1L98.9004 150.1L103.2 151.2L104.3 155.2L100.4 161L103.6 164.3L106.4 168.2L112 170.9L113 176.6L115.7 177.6L116.6 180.5L109.2 183.8L108 191.2L115.6 190.3L124.5 190.2L134.4 189L139.3 193.8L141.4 198.4L145.6 200L152.7 205.4L154.6 207.9L152.2 210.2L160.2 217.9L164.2 218.7L171.8 214.9L173.5 220.8L174.3 228.6L176.8 236.7L180.4 249L186.2 257.8L187.5 261.7L189.5 269.7L192.9 275.8L195.1 278.8L197.6 285.2L200.7 294.1L206.2 300.1L208.4 298.3L210.1 293.9L215.1 292.1L213.3 290L215.5 285.2L218.4 284.9L217.7 274.1L219.6 268L218.9 262.7L217 254.5L218.2 249.6L220.7 249.3L225.5 247L228.1 245.4L227.8 242.5L232.8 238.3L236.5 234.3L241.8 226.8L249.2 222.6L251.6 218.8L250.7 214L257.3 212.7L261 212.8L261.5 210.4L259.9 205.2L257.3 200.4L257.7 196.6L254 194.9L254.8 192.6L257.9 190.2L253.3 186.8L254.5 182.5L259.3 185.2L262 185.6L263.2 190L268.6 190.9L273.6 190.8L277 191.9L275.4 197.2L273 197.6L271.9 201.2L275.4 204.5L275.6 200.5L277.1 200.4L281.6 210.5L282.1 215.1L280 214.1L281.1 219.2L285.7 224.4L289.1 225.3L288.7 227.5L294.1 234.9L296 240.8L295.1 248.7L298.7 250.2L301.9 250.8L307.7 246.2L310.9 243.1ZM365.7 281L359.9 281.5L365.7 281ZM324.9 218.5L329 214.4L329.7 215.9L332.6 216L330.7 208.8L333.4 207.8L337.4 212.9L340.8 218.6L347.6 218.7L350.6 224.2L347.3 225.9L346 228.2L353.3 232L359 239.5L363.3 245.1L368.1 249.5L370.1 254L369.9 260.4L364.7 258.1L362.7 262.4L357.8 260L359.3 257.1L358.8 251.7L353.6 246.2L352.3 239.9L347.4 234.7L343.1 234.3L342.3 236.5L339.1 236.7L337.3 235.5L332 239.3L331 233.6L331.4 226.9L327.6 226.6L326.7 222.8L324.1 220.9L324.9 218.5ZM182.1 82.5996L175.3 85.9996L174.3 88.3996L167.9 89.1996L167.3 93.1996L161.6 92.2996L158.4 93.4996L154.4 96.4996L155.5 97.9996L154.5 99.4996L145 100.4L137.9 98.3996L132.5 98.8996L131.9 95.1996L137.8 96.2996L139.2 94.2996L143.3 94.8996L148.5 90.3996L141.4 87.0996L138.2 88.6996L133.6 86.3996L136.7 82.2996L134.9 81.6996L135.2 78.9996L138.3 78.1996L147.4 80.2996L146.9 76.6996L149.4 75.3996L157.5 77.9996L159.1 77.2996L167.7 77.4996L175.5 78.0996L178.8 80.2996L182.3 81.1996L182.1 82.5996ZM251.8 182.7L247.2 182.8L240.4 181.3L236.1 180.7L232.3 177.5L224.7 176.6L217 173.1L211.2 170L205.5 167.5L206.4 161.6L209.2 158.7L211.1 157.2L215.8 159.2L222.2 163.3L225.4 164.2L227.9 167.3L232.4 168.5L237.4 171.3L243.8 172.8L250.3 173.4L250.4 176.1L251.9 180.2L251.8 182.7Z" stroke="#DDBD9F" stroke-linejoin="round"/>
<path d="M472.501 273.4L470.701 271L465.301 270.9L469.301 275.7L469.601 278.1L466.301 277.6L467.501 281.5L469.201 281.8L469.901 286.3L472.401 284.9L470.701 280.9L470.301 278.8L474.801 280.5L472.501 273.4Z" fill="#DDBD9F" stroke="#DDBD9F" stroke-linejoin="round"/>
<path d="M446 269.9L448.8 273.1L449.6 267.6L447.4 265.3L442.6 265.1L446 269.9Z" fill="#DDBD9F" stroke="#DDBD9F" stroke-linejoin="round"/>
<path d="M479.699 297.199L479.099 294.899L478.299 291.699L473.499 288.699L474.299 293.599L470.399 293.799L469.699 296.599L465.499 298.299L463.299 295.499L460.499 297.899L457.099 299.599L455.199 304.999L456.299 306.899L460.199 303.299L462.899 303.599L464.399 300.899L468.199 303.899L466.699 306.999L468.599 311.599L475.399 315.299L476.799 312.299L474.699 307.599L477.099 304.399L479.599 310.799L481.099 304.999L480.499 301.499L479.699 297.199Z" fill="#DDBD9F" stroke="#DDBD9F" stroke-linejoin="round"/>
<path d="M462 291.501L463.4 287.501L465.2 285.401V279.301L461.6 285.401L462.1 281.201L459.1 281.501L458.8 285.501L457.6 287.301L456.6 289.001L460.4 293.401L462 291.501Z" fill="#DDBD9F" stroke="#DDBD9F" stroke-linejoin="round"/>
<path d="M454.1 284.3L457.4 282.4L459.8 279.7L459.6 277.1H456L452.5 275.1L453.7 278.1L453.6 281.4L454.1 284.3Z" fill="#DDBD9F" stroke="#DDBD9F" stroke-linejoin="round"/>
<path d="M455.1 259.5L452.8 260.3L449.7 259.6L447.7 254.5L447.8 249.4L450.8 247.3L451.4 242L448.7 237.4L449.1 234.8L448.4 233.2L446.9 234.8L443.2 233H439.9L439 238.8L440.1 248.7L437.5 246.7L438.7 252.7L439.9 255.5L443.2 259.2L443.6 256.9L445.4 258.3L443.9 260L444 262.6L446.9 264L451.9 263.1L455.9 266.9L457 264.5L459.5 267.9L464.3 271L464.5 268.1L462.5 266.5L462.6 263.1L455.1 259.5Z" fill="#DDBD9F" stroke="#DDBD9F" stroke-linejoin="round"/>
<path d="M611.401 412.4L607.201 411.3L607.701 408.5L604.501 408.7L601.501 401.9L596.801 397.8L595.901 393.5L601.101 392.8L600.001 389.5L590.901 385.5L590.301 381.8L587.401 378.6L583.701 375.3L573.501 371.7L563.901 367.3L557.901 366.1L553.801 363.8L549.101 361.6H544.101L537.501 365.4L532.601 372.2L526.901 368.4L525.601 358.1L524.801 355.7L515.801 353.1L512.901 355.2L505.301 356.7L507.601 359.9L512.601 361.1L514.701 364.8L523.001 364.9L523.401 366.5L519.401 366.4L513.201 368.7L517.401 371.8L517.301 374.6L518.501 376.9L520.601 376.4L522.401 373.3L530.601 379.2L535.201 379.7L545.801 385.1L548.101 390.4L549.101 397.3L545.401 399.1L542.601 404.3L549.701 404.1L551.301 402.3L556.801 403.6L561.401 408.8L567.101 409L570.201 410.1L574.801 407.9L574.501 403.2L578.101 401.1L583.001 399.3L590.001 402.1L592.401 407.7L595.301 411.2L599.201 415.2L604.701 416.2L609.501 416.9L610.601 418.5L614.401 418.1L615.201 416.3L609.601 413.6L611.401 412.4Z" fill="#DDBD9F" stroke="#DDBD9F" stroke-linejoin="round"/>
</svg>
