<svg width="729" height="221" viewBox="0 0 729 221" fill="none" xmlns="http://www.w3.org/2000/svg">
<path fill-rule="evenodd" clip-rule="evenodd" d="M46.9996 208.4L47.3997 206.3L46.8997 204L45.5996 203.4L44.2996 201.8L42.9996 202.3L42.5996 201.1L40.5996 204.2L41.0996 206.1L42.0996 207.1L41.5996 209L41.4996 213.3L42.1996 216.3L45.1996 218.4L45.3997 219.8L46.3997 220.2L48.4996 217.2L48.5996 215.1L50.1996 214.2V212.6L47.8997 211L46.9996 208.4Z" fill="#FCAD95" stroke="#FCAD95" stroke-linejoin="round"/>
<path fill-rule="evenodd" clip-rule="evenodd" d="M656.7 175.501L647.2 169.201L643.5 160.201L652.4 162.201L638.8 151.301L631.6 145.101L626.5 139.101L619.7 133.301L614.8 129.301L613.5 130.101L617.9 132.901L616 135.701L622.8 144.001L630.6 150.001L637 158.301L639.4 162.901L644.9 169.701L648.7 175.701L653.3 180.901L653.2 176.101L659.7 179.901L656.7 175.501Z" fill="#FCAD95" stroke="#FCAD95" stroke-linejoin="round"/>
<path fill-rule="evenodd" clip-rule="evenodd" d="M727.5 80.9992L723.7 78.6992L719.6 77.0992L710.5 72.4992L702.4 69.4992L708.5 69.8992L710.5 67.3992L677.6 45.4992L668.2 43.1992L652.5 40.5992L644.6 40.8992L629.4 39.4992L631.2 41.7992L639.7 45.1992L637.2 46.9992L623 42.1992L616.2 42.7992L607 41.6992L600 41.8992L596.1 42.9992L588.9 41.3992L583.8 37.5992L577.3 35.3992L568.1 34.4992L553.4 35.4992L537.3 31.4992L529.5 28.4992L489.4 25.0992L487.3 27.2992L496.6 32.0992L489.1 31.3992L488.1 32.8992L478.4 31.2992L473.4 32.6992L464.1 30.2992L467.1 35.7992L458.2 33.6992L448.2 29.5992L447.8 27.3992L441.8 24.0992L432 21.4992H425.9L416.6 20.5992L421.3 24.4992L404.1 23.6992L400.2 21.3992L386.9 20.4992L381.6 21.2992L381.5 22.5992L375.7 19.3992L373.4 20.2992L366.2 19.0992L360.6 18.3992L361.7 16.8992L368.3 14.0992L370.6 12.5992L368.2 10.0992L362.7 8.19922L351.2 5.89922L340.4 5.79922L338.5 6.99922L334.4 4.59922L325.2 3.89922L328.6 2.69922L320.4 1.19922L314.3 3.09922L313.3 5.09922L314.8 7.19922L307.9 7.09922L302.6 9.69922L298.3 8.59922L289 9.09922L289.3 10.3992L280.1 11.0992L275.2 13.4992L271 13.6992L269.8 16.9992L275.3 19.5992L267.6 20.2992L258.1 19.9992L252.3 21.0992L257.1 26.4992L264 30.7992L254.4 27.7992L246.5 28.0992L241.4 30.0992L245.9 33.8992L241 32.8992L238.9 27.8992L234.7 25.0992L232.9 25.1992L236.5 28.8992L231.9 32.3992L240 36.5992L240.4 41.9992L243.3 44.8992L248 45.3992L248.4 48.8992L252.8 51.9992L250.9 54.5992L251.4 57.2992L247.7 58.6992L247.2 60.6992L241.9 59.8992L245.4 52.0992L244.9 48.4992L238.2 45.1992L234.4 37.8992L230.7 34.1992L227.1 32.5992L227.9 28.3992L225 25.4992L213.7 24.0992L211.6 25.0992L212.1 29.7992L207.8 34.4992L209 36.1992L213.7 40.2992L213.8 42.8992L219.1 43.3992L219.9 44.4992L225.7 47.3992L224.7 50.1992L206.2 44.0992L199.6 42.3992L186.8 40.7992L185.6 42.4992L191.5 45.5992L188.8 49.1992L182.4 45.9992L177.4 48.1992L169.8 48.2992L167.7 50.1992L162.4 49.5992L164.9 46.2992L161.7 46.0992L149.4 50.6992L141.8 53.2992L142.2 56.7992L136.2 57.9992L132.2 56.0992L131 53.0992L136 52.3992L132.4 49.3992L120.2 47.5992L124.5 50.9992L123.7 54.1992L128.4 57.4992L127.3 61.2992L122.7 59.3992L118.7 59.0992L110.7 64.4992L114.9 68.5992L111.7 69.9992L100.3 66.4992L98.2003 68.5992L101.5 70.9992L101.7 73.6992L97.9004 72.2992L91.9004 70.5992L90.0004 64.7992L89.0004 62.1992L81.0004 58.1992L83.9004 57.4992L104 61.6992L110.4 60.1992L114.1 57.2992L112.5 53.6992L108.5 51.0992L90.9004 44.9992L79.3004 43.6992L71.7003 40.4992L68.1003 42.2992L61.7003 44.4992L58.5004 44.9992L58.9004 48.6992L66.1003 52.3992L63.3004 56.4992L69.7003 62.7992L68.0004 67.5992L72.9004 71.6992L72.0004 75.3992L79.3004 79.2992L78.4004 82.1992L75.1003 85.4992L67.2003 92.8992L72.5004 95.6992L68.0004 98.8992L63.4004 99.0992L58.3004 98.0992L52.8004 98.9992L47.4004 100.599L48.3004 103.999L51.6003 106.099L53.1003 105.299L53.2004 108.799L53.0004 113.399L49.4004 113.499L45.0004 108.999L41.0004 111.099L39.3004 114.799L39.8004 119.299L41.5004 124.299L35.2004 126.299L34.5004 128.899L29.9004 128.799L29.4004 127.399L24.6003 126.299L18.9004 128.399L11.8004 131.199L8.70038 132.899L10.1003 135.999L8.90039 137.599L10.9004 139.799L12.3004 143.099L12.2004 145.199L14.5004 149.099L12.4004 149.699L11.0004 148.999L9.90039 150.199L6.50037 151.399L4.80035 152.899L1.40039 154.199L2.40039 156.099L3.10034 158.699L5.70038 160.199L8.60034 162.799L12.4004 164.799L15.0004 162.299L16.7004 161.799L20.7004 163.699L23.0004 163.399L25.3004 164.599L25.0004 165.399L25.7004 167.499L25.5004 170.099H22.7004L23.8004 171.399L22.5004 175.399L23.3004 175.499L24.5004 177.599L20.6003 179.299L20.3004 181.799L18.6003 182.399L18.8004 184.099L16.8004 183.999L15.0004 182.999L14.2004 183.999L10.7004 183.799L10.5004 183.899V186.099L12.2004 188.099L13.5004 185.499L16.8004 186.499L17.1003 188.499L19.6003 191.099L18.6003 191.599L23.2004 196.099L28.0004 197.899L31.1003 200.099L36.1003 202.399L36.6003 201.399L37.0004 197.999L38.5004 196.599L39.4004 195.999L40.9004 197.099L41.7004 197.899L43.5004 198.599L45.5004 199.799L45.1003 200.399L46.3004 199.899L46.8004 197.899L47.7004 197.499L48.5004 198.399L49.5004 198.799L50.3004 199.799L51.1003 200.099L52.2004 201.199H53.0004L52.5004 202.699L52.0004 203.399L52.2004 203.899L51.1003 204.099L48.2004 205.099L48.1003 206.299H47.4004L47.0004 208.399L47.9004 210.999L50.2004 212.599L53.5004 211.999L55.4004 210.699L58.2004 210.799L58.9004 209.699L59.9004 209.499L63.7003 209.699L67.6003 207.999L71.5004 210.099L76.1003 209.499L75.8004 206.499L80.8004 204.499L85.3004 205.299L83.2003 201.799L84.5004 197.399L86.7003 194.899L87.1003 187.499L88.7003 187.999L91.0004 186.699L90.6003 185.099L93.9004 180.499L95.2003 177.099L99.7003 176.299L100.4 178.699L108.4 180.199L110.1 181.599L105.6 183.699L104.9 184.899L110.7 186.699L110.1 189.599L113.1 190.899L119.4 187.299L124.7 186.199L125.3 183.999L120.2 184.399L117.5 182.899L116.5 178.999L120.4 176.699L125 176.399L128 174.399L131.9 173.899L136.1 172.899L136.5 174.199L129.7 176.799L132.9 179.199L129.7 184.399L126.3 185.399L131.3 188.999L137.5 191.399L144.9 196.499L145.4 195.799L149.9 196.899L157.6 197.899L165.1 200.799L166.2 201.999L169.1 200.999L174.2 202.299L176.3 204.799L179.8 206.199L181.3 206.399L185.6 210.199L188 210.599L188.5 209.099L191.1 206.599L183.8 199.299L183.4 195.199L177.5 189.299L181 182.999L185.6 181.899L187 178.199L184.2 177.199L184 173.999L179.8 169.899L176.2 170.099L170.9 165.799L172.6 161.099L170.9 159.899L173 153.099L179 156.699L178.3 152.099L186.4 145.499L193.9 145.299L205.8 149.599L212.4 151.999L216.7 149.499L224.3 149.299L231.6 152.499L232.4 150.699L239.3 150.999L239.5 147.999L230.1 143.799L233.7 140.899L232.2 139.199L236.1 137.599L231.1 133.499L232.5 131.399L249.3 129.299L251 127.799L261.8 125.599L264.9 123.099L273.9 124.399L278.2 130.699L282.5 129.199L289.5 131.299L290.7 134.599L295.1 134.199L304.2 128.499L303.4 130.399L311.7 135.099L329.8 150.599L330.9 147.299L339.2 150.899L345.4 149.299L348.6 150.399L352.7 153.999L356.6 155.199L359.9 157.799L365.9 156.899L370.2 160.699L371.9 160.199L376.6 159.199L383.2 153.799L389.1 150.899L394.4 152.799L399.5 152.899L404.2 155.799L409.2 155.999L417.1 157.599L419.5 153.299L415.5 149.699L416.8 143.299L423.7 145.799L428.5 146.599L435.1 148.099L438.8 152.699L447.2 155.299L451.1 154.199L456.8 153.399L462.2 154.199L468.7 157.199L473.6 160.299H478.1L484.8 161.299L488.4 159.699L494.2 158.699L498.7 154.299L502 154.999L505.9 157.099L511.4 156.599L518.7 158.899L523.1 154.999L521.2 152.299L521.1 145.799L522.3 143.799L519.8 140.499L516.1 138.999L517.8 135.999L522.9 134.899L529.1 134.699L537.6 136.499L543.5 138.799L551.2 144.899L555 147.599L559.4 151.299L565.5 157.399L575.4 159.299L584.3 163.799L590.3 169.599H597.8L600.4 167.099L607.3 165.299L608.6 170.899L608.2 173.199L611 179.999L611.6 185.999L604.8 184.899L601.9 187.099L606.6 192.399L610.4 199.699L607.9 199.799L609.8 202.899L611.2 203.999L610.8 201.999L614.8 197.499L619.9 200.499L623.1 200.399L627.5 196.799L628.5 193.099L630.6 185.999L632.5 178.799L631.2 174.499L632.2 165.499L627 155.599L621.5 148.299L620.2 142.099L615.5 136.999L602.8 130.299L597.2 129.899L596.9 132.899L591.1 131.599L585.4 127.799L577.4 127.099L582.3 112.999L585.8 101.499L598.9 99.6992L613.8 100.699L616.3 97.8992L624.2 98.6992L628.5 102.999L634.9 102.399L643.3 100.799L635.6 97.2992V87.4992L644.7 85.5992L656.8 92.6992L660.4 86.2992L657.2 81.5992L661.9 81.0992L668.4 89.1992L666 93.7992L665.2 99.7992L665.5 107.299L659.8 108.599L662.6 111.299L662.5 114.899L668.9 123.199L684.9 136.599L695.4 145.399L701.1 149.699L702.7 143.999L698.2 137.799L703.9 136.299L698.5 129.399L703.5 126.299L698.8 123.699L695.4 118.699L699.5 118.499L690.5 109.899L683.8 108.499L680.9 106.099L679.8 100.499L676.7 96.5992L683.7 97.3992L685 94.8992L689.7 97.0992L695.8 92.4992L707.2 96.4992L705.5 93.8992L707.5 90.2992L709 86.2992L712.1 85.5992L718.6 81.2992L728.4 82.4992L727.5 80.9992ZM90.5004 178.599L87.5004 178.399L86.9004 177.499L85.9004 177.999L86.4004 179.099L85.3004 181.099L84.8004 183.199L83.6003 183.899L82.3004 181.099L82.5004 178.399L81.9004 175.699L78.5004 171.999L76.6003 169.399L74.8004 167.499L73.2003 166.899L74.3004 165.999L77.5004 165.399L81.4004 167.299L83.4004 167.599L85.9004 169.199V171.299L87.8004 172.399L88.9004 174.999L90.9004 176.499L90.7003 177.499L91.7003 178.099L90.5004 178.599Z" fill="#FCAD95" stroke="#FCAD95" stroke-linejoin="round"/>
</svg>
