<svg width="916" height="338" viewBox="0 0 916 338" fill="none" xmlns="http://www.w3.org/2000/svg">
<path d="M476.7 198.5L469.6 205.5L461 206.3L455.5 203.2L455.4 198.6L456 191.8L462.1 187.7L458.8 184.6L451.2 185.2L439.1 190.4L428.2 198.6L423.6 199.6L431.4 193.9L441.5 185.6L448.7 182.9L454.4 178.5L459.6 178L466.9 178.1L476.9 179.4L485.5 178.4L493.3 173.3L502 171.1L506.2 169L510.4 166.7L512.4 159.9L511.3 157.6L507.9 156.8V151.7L505.6 149.8L498.7 148.2L495.9 144.8L491.1 141.4L494.5 137.7L492.5 130.6L489.9 123.1L488.9 117.9L484.6 120.6L477.2 127.1L469.1 130.3L467.5 126.9L463.8 125.9L466 118.6L468.6 113.7L460.9 113.2L460.8 111L457.2 107.7L454.2 105.7L449.7 107.2L445.5 106.7L438.9 105.1L435 106.4L431.2 115.4L430.2 120.7L421.4 126.8L424.5 131.3L425 136.3L423.3 140.3L418.6 144.4L411.1 148.6L402.1 151.4L403.8 154.6L401.6 164.2L396 170.5L391.4 172.4L387 166.6L386.9 159.8L388.6 153.8L392.2 148.6L387.4 148L379.9 147.6L376.3 145.1L371.5 143.5L369.8 140.6L366.5 138.4L359.5 135.8L352.4 137L353.1 132.5L354.6 127L348.6 126L353.5 119.2L358.4 114.6L367.8 108.1L376.4 103.5L382 102.8L384.9 99.1004L390 96.7004L396.4 96.3004L404.1 92.5004L407 90.1004L414.4 85.4004L417.6 82.6004L420.8 84.3004L427.3 83.4004L438.1 79.6004L440.4 76.9004L439.6 74.0004L444.6 71.1004L446.3 68.4004L442.8 65.8004L437.4 65.0004L431.9 64.6004L427.3 70.5004L420.8 75.1004L413.6 79.1004L412.3 75.4004L416.5 71.4004L414.3 67.9004L405.6 72.1004L409.9 66.6004L403.3 65.6004L409 63.0004L408.6 57.0004L406.7 54.7004L402.2 53.9004L394.1 57.7004L388.6 63.5004L391.5 65.6004L393.1 68.9004L386.8 74.4004L383.6 74.2004L377.4 78.6004L381.6 73.4004L376.8 71.6004L372.3 72.5004L369.9 75.9004L364 75.8004L356.8 76.6004L351.7 74.2004L346.7 74.6004L345.2 71.7004L343.1 70.4004L339.3 70.9004L334.1 71.2004L329.7 73.0004L331.7 75.3004L324.7 78.1004L323.3 74.8004L318.9 75.8004L307.1 76.4004L300.7 75.2004L309.2 72.6004L306.4 69.8004L302 70.2004L297.3 69.2004L289.8 67.3004L286 65.0004L281.5 64.7004L278.2 66.3004L272.3 67.2004L276.2 63.1004L266.8 66.7004L265.4 62.0004L263.3 61.4004L259.5 63.9004L255 65.1004L254.8 62.9004L246.6 64.3004L237.8 66.6004L232.6 66.0004L225.6 67.6004L219.4 69.9004L215.7 69.4004L212.4 66.8004L206.5 65.5004L203 64.8004L198.9 63.2004L192.4 64.0004L190.2 63.3004L183.1 62.8004L176.9 61.2004L172.1 61.7004L167.2 60.8004L169.2 59.6004L162.9 59.3004L159.6 60.3004L160.1 57.9004L155.7 56.8004L145.5 59.6004L142.3 59.3004L131.3 61.6004L126.5 62.2004L118.7 64.7004L113.9 67.3004L105.3 69.8004L97.6996 69.9004L91.3996 72.8004L94.5996 74.5004L95.2996 76.8004L94.4996 79.5004L96.7996 81.6004L95.5996 85.1004L86.3996 85.3004L90.6996 82.5004H87.2996L74.1996 85.2004L65.0996 87.5004L66.0996 90.8004L64.8996 93.0004L69.3996 94.4004L76.2996 93.7004L78.0996 95.0004L80.9996 93.7004L87.0996 92.5004H89.7996L83.8996 94.6004L84.9996 95.6004L82.4996 98.2004L76.9996 100L74.4996 99.5004L67.4996 102.2L65.6996 101.3L61.5996 101.7L56.2996 104.7L48.6996 107.8L42.8996 111.2L43.1996 113.6L39.1996 116.9L40.5996 118.3L41.0996 121L48.2996 119.9L48.6996 122L45.3996 124.1L41.7996 127.6H44.5996L51.7996 125.3L50.1996 128.2L53.7996 126.1L53.3996 129.1L58.1996 126.9L58.5996 128L65.7996 126.2L59.5996 129.6L53.8996 134.1L48.1996 136.2L45.8996 137.4L35.5996 141L30.6996 143.4L24.1996 144.1L15.6996 147.4L9.09962 149.2L0.999611 152L0.599609 153L10.5996 151.3L16.5996 149.3L23.4996 147.3L29.5996 145.6L32.3996 146.1L40.4996 143.5L44.9996 140.7L55.4996 137.6L59.3996 135L65.9996 133.2L73.5996 130.7L82.4996 126.5L82.2996 123.6L93.3996 119.5L100.8 115.6L110 112.4L109.6 113.8L102.9 115.6L94.5996 121.3L91.3996 124.8L97.7996 123.5L103.9 121.6L110.4 120.3L113.3 120L116.8 115.9L123.1 114.7L125.7 117.2L131.7 119.9L138.4 119.4L144.1 121.4L147.3 122.5L150.6 128.6L154.3 130.3L161.4 130.5L165.5 130.9L162.8 136.4L164.4 141.3L161.1 146.5L163.6 148.4L164.2 150.6L161.7 153.7L163.8 158.1L160.7 163L164.8 165.6L161.2 169.3L159.9 174.8L166.8 177.3L168.4 180L173.8 186.1H174.5L172.9 191.2L170.5 196.3L168.2 197.9L169.3 192L163.5 189.9L162.1 191.1L161.7 194L159.9 199.4L155.7 207.7L151.7 213.3L147.7 218.9L142.3 224.7L141.2 229.4L138.4 234.7L134.5 239.9L135.5 243.3L133.6 248.5L135.1 253.9L136.4 256.1L135.6 257.6L136 266.6L138.5 273.1L137.7 276.6L138.7 277.6L143.3 278.3L144.6 280L147.4 280.3L147.3 282.2L149.5 282.9L151.6 286.6L151.3 289.8L157.6 289.3L164.6 288.6L163.6 289.9L170.7 293L181.4 297.4H196.4L197.2 294.8H206.5L207.8 297L209.9 299L212.3 301.8L213.1 305.1L213.5 308.6L215.7 310.5L219.7 312.4L224.5 307.4L228.9 307.3L232 309.8L233.6 314.2L234.6 317.9L237 321.5L237.2 326L238 329L241.9 331L245.5 332.4L247.6 332.2L247 330L247.4 326.9L248.4 322.5L250.3 319.7L254 316.6L260 313.9L266.1 309.2L271 307.7L274.5 307.3L278 308.7L282.9 307.9L286.2 311.3L290 311.5L292.4 310.3L294.1 311.2L295.4 310.4L294.5 309.1L295.2 306.6L294.7 304.9L297.1 303.9L301.3 303.5L306 304.2L312.2 303.4L315.2 304.9L317.2 307.9L318.1 308.2L324.2 305.3L326.1 306.3L329.1 311.6L329.9 315.1L327.9 319.3L328.3 321.8L329.9 326.7L331.9 332.2L333.7 333.6L334.1 336.4L336.7 337.2L338.4 336.4L340.4 332.5L341.1 330L342 325.7L340.8 318.3L341.3 315.6L339.8 311.1L339.1 305.7L339.2 301.3L341 296.8L344.5 293L348.2 290L355.1 285.9L356.4 283.7L359.7 281.4L362.5 281L366.9 277.2L372.9 275.3L377.5 270.5L378.4 264L378.5 261.8L377.1 261.4L378.6 255.2L375.6 253.1L378.8 254.1V250L380.7 247.3L379.7 252.6L381.7 255.1L378.8 259.5L379.2 259.7L383.6 254.6L386 252.1L386.6 249.6L385.7 248.5L385.6 245L386.8 246.6L387.9 247L387.8 248.6L393 243.7L395.5 239.2L394.1 238.9L396.2 237.1L395.8 237.9H399.1L406.9 236L405.8 234.8L397.9 236L402.7 234.2L405.8 233.9L408.2 233.6L412.3 232.5L414.7 232.6L418.5 231.6L419.5 229.9L418.4 228.5L418.2 230.7L416.1 230.6L415.5 227.3L416.6 224L418 222.7L421.9 219L427.8 217.2L433.8 215.1L440.1 212.1L439.9 210.1L445.8 209.3L453.9 209.1L443.5 214.2L442 219.4L445.7 219.9L452.8 215.4L458.6 213L470.8 209.3L478.3 205.2L475.7 203L476.7 198.5ZM324.7 199L319.2 200.3L319.6 199.4L324.2 196.8L328.9 194.3L334.8 192.2L338 189.8L341.2 188.8L343 187.3L344.5 186.5L348.5 187.7L351.8 187.9L352.6 188.7L352.7 192.2L357.9 193.2L356.2 194.9L357.4 196.8L355.5 199.1L357.3 199.9L355.4 202L354 201.7L353.6 200L348.5 200.5L343.5 201.9L341 199.6L338.5 198.8L341.6 195.5L336.3 197.5L331.4 199.6L326.8 201.1L324.7 199ZM346.8 212.1L347.2 210L344.6 211.5L342.5 213.5L339.9 216.6L338.6 219.2L338.7 223L336.9 227L333.6 230L332.2 230.9L330.6 231.6H328.8L328.5 231.2L328.4 227.9L329.1 226.3L329.8 224.8L330.4 221.8L332.9 218.3L335.8 214L340.4 209.3H339.7L334.3 213.3L333.9 212.6L336.8 210.3L341.5 206.3L345.2 205.8L349.6 204.5L353.3 205.2H353.4L358.1 204.7L356.6 202.2L357.9 201.3L358.4 202.7L361.8 203.4L365.6 203.5L369.4 204.1L373.4 205.3L374.2 207.3L375.6 212L373.2 214L369.4 213.2L368.4 209.4L367.5 213.3L363.7 216.7L362.9 219.6L361.8 221.3L357.7 223.3L358.4 220.8L358.9 217.3L357.3 216.6L353 219.4L352.1 219.3L352.4 217.8L356.2 215.3L357.8 212.5L358.5 209.7L355.8 207.3L352.1 206L350.4 208.4L349 209L346.8 212.1ZM375.4 224L369.6 227.7L365.1 229.5L362.2 230.3L358.5 232L354.5 232.9L352 232.6L349.3 231.3L352 228.9L354.7 229.3L359.2 227.3L362.1 225.6L363.7 225.3L366.3 225.9L368 225L370.8 224.2L375.5 223.4L375.4 224ZM390.9 219.6L386.3 221.6L382.4 221.1L378.4 220.9L375.8 221.6L375.5 221.7L373.8 222L372 221.4L374.3 219.3L376.2 218.6L380.1 217.7L384.7 216.8L386.5 218L388.4 216.6L390.3 215.8L391.2 216.2L391.3 216.3L391.5 217.2L390.9 219.6Z" fill="#FFE4BA" stroke="#FFE4BA" stroke-linejoin="round"/>
<path d="M286 59.2L299.4 56.7L302 54.4L311.1 50.8L324.9 47.2L331.3 45.9L329.7 43.8L327.8 42.3L318.4 42.1L314.3 41L300.3 41.8L300 44.9L292.4 48.2L285 52L280.7 54.2L286.6 56.9L286 59.2Z" fill="#FFE4BA" stroke="#FFE4BA" stroke-linejoin="round"/>
<path d="M312.4 51.8992L304.6 55.7992L310 57.1992L316.2 57.0992L304.7 59.1992V61.0992L310.3 61.1992L319.3 60.7992L325.8 61.9992L319.6 62.9992L314.1 62.6992L307 63.5992L303.7 64.1992L304.3 68.3992L308.5 67.7992L312.6 69.2992L312.3 71.7992L320.1 71.2992L331.3 70.4992L340.7 68.6992L345.7 68.2992L351.4 69.7992L358.1 70.5992L361.2 68.6992L360.5 66.5992L367.5 66.1992L370.1 63.7992L365.1 61.2992L360.9 58.6992L363.3 55.0992L366 49.9992L363.8 47.9992L360.8 47.0992L356.6 47.8992L353.8 53.1992L349.5 55.2992L351.7 50.1992L350 48.4992L342.7 51.1992L340.1 48.5992L329.7 50.0992L334.4 47.6992L331.6 46.6992L317.5 49.8992L312.4 51.8992Z" fill="#FFE4BA" stroke="#FFE4BA" stroke-linejoin="round"/>
<path d="M470.2 11.1004L474.6 12.6004L487 12.3004L494.2 12.8004L487 14.3004L484.8 13.9004L475.5 13.7004L474.4 15.9004L477.4 17.6004L474.6 19.2004L467.1 20.3004L462.2 22.0004L467 22.9004L468.7 25.9004L461.2 23.9004L458.7 24.2004L456.7 27.6004L448.7 28.7004L446.7 31.0004L453.4 31.3004L458.3 31.9004L470 31.1004L478.4 32.5004L491 29.5004L492 28.4004L485.6 28.6004L486.1 27.5004L492.6 26.1004L496.2 24.2004L503 22.9004L508 21.3004L507.2 19.1004L510.5 18.3004L506.2 17.7004L517.3 17.3004L520.5 16.4004L528.4 15.6004L537.7 12.1004L544.5 11.0004L554.8 8.50039H547.4L551.3 7.60039L560.3 6.80039L570 5.20039L571.1 4.10039L565.9 3.10039L559.2 2.70039L550.7 2.40039L543.7 2.20039L536.8 1.90039L526.6 2.50039L525.2 2.10039L514.9 2.30039L508.5 2.70039L503.4 3.30039L498.4 5.30039L496.1 4.30039L492.2 4.10039L485.5 5.50039L478.1 6.10039L474 6.20039L468 7.00039L466.9 8.30039L469.4 9.50039L470.2 11.1004Z" fill="#FFE4BA" stroke="#FFE4BA" stroke-linejoin="round"/>
<path d="M516.5 188.001L512.8 189.101L515.6 184.501L511.3 182.601L508.6 184.101L504.7 182.401L507.1 180.301L504.2 179.001L500.4 181.001L505.3 175.601L509.2 171.801L510.6 170.101L508.5 169.801L503.6 172.001L499.4 175.501L491.3 185.301L486 189.001L487.6 190.701L483.8 192.901L484 194.801L493.6 194.901L499 194.601L503.4 196.101L499 199.001L501.9 199.201L509.2 193.801L510.4 194.601L507.9 199.701L510.9 200.901L513.2 200.701L516.7 195.201L516.2 191.301L516.5 188.001Z" fill="#FFE4BA" stroke="#FFE4BA" stroke-linejoin="round"/>
<path d="M509.3 75.5008L503.4 74.3008L495.7 70.8008L504.7 68.3008L503.9 63.3008L501.7 61.2008L493.4 59.1008L491.5 55.8008L483.3 57.0008L484.4 54.7008L480.8 52.2008L474 49.6008L468.8 51.7008L459.8 53.2008L463.1 49.8008L460.8 44.5008L449.2 46.6008L442.1 50.7008L441.8 47.5008L447.5 44.3008L436.3 45.6008L430.5 47.7008L423.4 52.3008L420.1 57.5008L425.7 57.6008L419.6 59.9008L421.4 61.8008L427.3 62.6008L434.6 64.1008L448.4 65.3008L456.3 64.7008L459.5 63.1008L461.5 64.9008L464.8 65.2008L466.8 68.5008L463.3 69.9008L470.4 71.7008L475 74.3008L475.5 76.2008L475.1 78.6008L466.5 84.0008L463.3 86.7008L463.5 88.7008L454.3 89.4008L446.3 89.5008L440.9 93.7008L443.3 95.6008L456.3 94.7008L457.2 93.1008L461.9 95.8008L466.6 98.7008L464.2 100.301L468 103.101L475.6 106.401L486.3 108.701L486.6 106.701L483.8 103.201L480.3 98.3008L488.8 102.901L493.5 104.401L497.1 100.301V94.7008L496.1 93.2008L491.7 90.7008L489 87.4008L491.3 84.2008L497.1 83.5008L500.9 88.9008L504.9 91.3008L515.6 84.8008L518.9 80.9008L512.5 80.6008L509.3 75.5008Z" fill="#FFE4BA" stroke="#FFE4BA" stroke-linejoin="round"/>
<path d="M895.2 117.399L903.2 116.899L911.1 109.499L914.4 106.199L915.3 103.299L908 99.3992L908.9 95.6992L904 91.5992L905.7 86.7992L899.3 80.4992L902.1 76.3992L894.9 72.6992L894.5 68.9992L897.7 68.4992L904.1 66.2992L898.7 62.9992L903.5 61.5992L889.9 57.6992L883 58.7992L875.7 58.4992L870.6 62.8992L863.9 62.5992L855.4 64.8992L845.3 71.6992L838.9 75.6992L830.1 86.3992L823 94.1992L814.9 99.9992L803.7 104.799L799.8 108.399L801.7 121.799L803.6 128.099L810 131.099L816 129.699L824.5 122.899L827.8 126.499L832 134.899L836.4 141.599L838.4 147.299L843.7 146.999L845.9 142.299L851.6 142.799L853.6 137.299L854.2 127.299L858.8 125.999L862.1 119.399L857.3 116.099L853.7 112.099L855.8 103.999L863.5 99.0992L869.6 94.5992L868.4 91.0992L871.8 87.1992L878.8 85.6992L885.2 88.2992L886.1 90.5992L883.5 91.7992L874.8 97.8992L871.5 101.499L870 104.799L872.9 109.999L872.8 115.699L877.5 117.599L880.6 120.699L887.7 119.499L895.2 117.399Z" fill="#FFE4BA" stroke="#FFE4BA" stroke-linejoin="round"/>
<path d="M751.7 147.601L754.3 144.801L755.7 146.401L754 149.101L755 150.701L760.7 151.801H760.8L763.9 155.601L763.1 159.101L756 158.501L755 162.501L757.6 165.801L752.5 167.701L753.8 170.101L761.3 171.101L757 172.401L749.7 178.901L752.2 180.101L755.7 177.801L760.2 178.501L763.5 175.601L765.7 176.801L774 175.101L780.5 175.201L784.8 171.901L782.9 168.801L785.3 167.001L785.8 163.101L780 161.901L778.7 159.601L775.8 152.701L772.6 151.701L768.5 144.601L768.1 144.001L763.3 143.601L767.5 138.301L768.8 133.401H763.8L759.1 134.201L764.1 127.801L758.6 128.301L755 127.901L751.3 132.701L749.4 138.801L751.6 141.801L751.7 147.601Z" fill="#FFE4BA" stroke="#FFE4BA" stroke-linejoin="round"/>
<path d="M912.1 233.5L907.5 234.1L903.6 232L899.7 233.7L895.9 233.5L894.9 233.7L894.2 234.8L891.4 234.7L889.5 236L886.2 236.6V238.2L884.6 239.1L884.5 241.2L882.4 244.2L882.9 246.1L885.8 249.7L888.1 252.7L889.4 257L891.7 262.1L896.3 265L899.7 264.9L897.3 259.2L900.6 258.5L898.7 255.2L903.7 256.9L903.3 253.2L900.6 251.4L897.4 248.4L899.2 247L896.4 244L894.8 240.2L895.7 238.9L898.7 242.1H901.6L904.1 241.1L900.2 237.5L906.3 235.9L909 236.5L912.2 236.7L913.3 236L914.5 232.1L911.8 230.5L912.1 233.5Z" fill="#FFE4BA" stroke="#FFE4BA" stroke-linejoin="round"/>
<path d="M734.5 7.7L724.5 6.9L707.6 8.4L698.4 9.9L702.9 7.6L700.6 6.2L693.6 7.4L683.9 6L671.8 6.5L670.4 5.8L688.7 5.4L701.6 5.2L708.2 3.8L688.5 0.9L662.5 0.5L650.7 0.8L645.7 2.1L634.2 2L621.5 4.1L619.9 5.8L626.6 7.9L620.4 6.6L615.9 6.3L608.9 4.9L598.3 7L595.6 5.8H585.2L574.3 6.4L565.4 7.4L565.2 9.2L559.9 9.7L545.3 12.6L540.7 14.3L548.8 15.8L546 17.4L531.1 19.6L515.6 21.8L513.4 23.5L519.8 25.5L534.3 26.7L526.8 26.9L515.9 28.4L519.7 31.5L522.7 33L532.1 32.7L542.2 32.5L549.8 32.8L557.8 35.7L556.4 37.8L560 39.7L561.4 45L562.4 48.6L563.8 50.5L556.8 55.3L559.4 56.6L563.8 55.8L566.4 57.6L571.7 61L564.2 59.6H560.4L557.4 62.4L555.9 66L560.1 67.8L564.1 67L566.7 66.2L572.2 64.3L569.4 68.5L566.8 70.8L559.7 72.8L552.7 79.1L554.7 81.1L551.3 85.1L555 90.3L553.5 95.3L554.2 99L559 106.1L559.8 111.7L562.9 114.9H571.8L576.8 119.6L583.3 119.3L587.4 113.6L590.9 108.8L590.6 104.4L599.2 99.8L602.5 96.1L603.9 92.2L608.6 88.7L615.1 87.4L621.2 86L624.2 85.8L634.4 81.9L641.8 76.2L646.6 74.1L651.2 74L663.7 72.2L675.8 67.9L687.7 63.3L682.2 63L671.6 62.8L676.9 60L676.4 56.4L680.6 59.4L683.3 61.5L690.6 60.5L690 56.2L685.5 53.1L680.5 51.8L682.9 50.4L690.1 52.5L690.6 50.2L686.5 46.8H691.9L697.5 46L699.2 44.2L695.2 42.1L703.8 41.8L699.8 37.5L703.9 37L704 32.8L697.8 30.3L704.2 28.7L710 28.6L706.4 25.4L707.5 20.3L711.1 17.4L716 14.2L708 14L719.3 13.3L721.5 12.3L736.1 9.4L734.5 7.7Z" fill="#FFE4BA" stroke="#FFE4BA" stroke-linejoin="round"/>
<path d="M734 162.3L729.8 168.7L736.5 169.6L745.2 166L749.1 160.6L748.4 156.3L751.1 152.1L746.2 148.4L742.3 148.7L738.6 151.5L731.9 156.2L734 162.3Z" fill="#FFE4BA" stroke="#FFE4BA" stroke-linejoin="round"/>
<path d="M716.8 83.2008L709.9 82.8008L702.6 85.7008L697.5 84.2008L690.6 87.2008L684.7 83.4008L678.2 84.2008L674.6 87.9008L683.3 89.2008L683.2 90.8008L675.4 91.9008L684.2 94.6008L679.6 97.1008L691.3 98.9008L696.9 99.7008L700.8 98.7008L713.7 94.8008L719.8 90.6008L715.4 86.8008L716.8 83.2008Z" fill="#FFE4BA" stroke="#FFE4BA" stroke-linejoin="round"/>
<path d="M868.1 236.399L864.2 234.499L859.4 232.199L860.8 230.999L859.4 229.599L855.4 229.699L849.4 224.699L846.5 219.599L841.6 216.499L839.7 213.399L840.2 211.599L839.8 208.599L843.7 206.399L847.8 207.299L846.4 204.599L846.7 201.599L850.9 201.999L853.3 200.599L857.6 200.499L858.5 199.399L859.8 195.399L858.7 194.099H861.5L861.7 191.499L861 189.399L861.3 188.599L859 187.399L856.7 187.699L852.7 185.799L851 186.299L848.4 188.799L844.6 186.799L841.7 184.199L839.1 182.699L838.4 180.099L837.4 178.199L840.8 176.899L842.5 175.399L845.9 174.199L847 172.999L848.4 173.699L850.5 173.099L848.2 169.199L848.3 167.099L846.9 163.799L844.9 161.599L846.1 159.999L844.7 156.899L842.3 154.999L836.8 152.599L834.3 154.299L829.6 155.399L829.5 153.299L824.6 151.899L824.4 149.599L822.9 146.599L826 142.299L827.4 142.999L828.4 140.699L825.8 139.799L825.1 138.199L826.4 136.199L826.3 133.199L822.7 134.799L821.2 136.499L817.2 136.899L816 138.599L815.3 140.199L815.7 146.299L817.8 149.699L818.2 153.099L819.4 155.299L816.4 158.299L815.4 156.999L811.5 157.299L810.6 158.599L806.7 158.399L800.2 160.999L796.3 169.899L793.8 171.599L790 172.799L785.7 173.999L784.3 179.099L773 183.899L768.4 181.299L769.8 188.299L761.6 186.699L755.2 187.999L755.6 192.599L763.1 194.999L766.7 198.099L771.8 204.599L770.8 216.899L768.1 220.599L759.9 220.399L755.7 220.699L750.3 219.699H743.5L737.3 218.599L729.9 223.099L731.9 225.699L731.5 230.099L731.6 232.199L732.5 234.399L732.6 237.099L731.3 240.899L730.9 243.399L728.7 245.699L728.1 249.899L729.3 252.299L731.6 252.899L732 256.899L731 261.999L733.8 261.299L736.5 262.199L738.7 260.499L743.5 261.499L744.9 265.199L746.9 267.399L749.4 267.999L751.5 265.499L754.8 263.199L759.8 263.299H766.5L770.3 258.299L774.2 256.999L775.4 252.799L778.4 249.899L776.4 246.199L778.4 241.099L781.5 237.599L782 235.499L788.6 234.199L793.4 229.999L793.1 226.499L793.6 222.799L801 220.799L811 222.399L815.5 218.999L817.6 218.499L820.4 215.699L822.7 214.799L826.9 216.899L829.5 217.599L831.4 223.599L835 227.199L839.9 231.199L844.1 233.999L848 234.399L850.3 236.899L853.7 238.099L855.4 240.799L857.6 241.599L859.4 244.799L861.7 248.499L860.6 249.799L859.8 253.299L859.9 255.299L862 254.799L864.5 249.199L866.6 248.799L867 245.499L863.1 243.199L865 239.099L869.5 240.099L872.6 243.099L873.4 240.799L872.8 239.599L868.1 236.399Z" fill="#FFE4BA" stroke="#FFE4BA" stroke-linejoin="round"/>
<path d="M854.9 253.699L849.7 254.399L843.5 253.799L842.9 257.199L850.4 260.499L853.1 261.199L857.3 263.599L858.2 260.299L857.3 258.299L858.9 253.199L854.9 253.699Z" fill="#FFE4BA" stroke="#FFE4BA" stroke-linejoin="round"/>
</svg>
