<svg width="434" height="550" viewBox="0 0 434 550" fill="none" xmlns="http://www.w3.org/2000/svg">
<path d="M432.1 251.6L430.1 243.5L428 241.5L423.2 241.3L418.9 239.4L411.6 232.3L403.2 227L394.8 227.3L383.9 223.9L377.4 225.9L378.2 222.4L375.5 218.6L366.1 214.8L359 212.5L354.8 216.6L354.5 210.3L344.6 209.3L342.9 207.3L347.1 202.1L347 197.7L344 196.7L341 185.5L339.7 182L337.8 182.3L336.9 179.7L331.1 174.3L327 172.8L325.1 172.1L319.1 170.4L314.5 170.9L313.9 172L307.2 170.8L305.1 168.5L302.2 165.4L300.1 165.3L300 162L296.7 157.9L293.1 155.5L290.9 154L288 154.2L287.3 149.1L283.2 145.9L278.8 145.5L277 142.5L281.8 140.6L275.1 140.7L268.2 141.1L268 142.7L264.8 144.6L260.6 143.9L257.5 141L251.5 141.7L246.5 141.6L246.4 139.5L242.9 136L239 135.9L237.3 131.4L235.2 133.4L235.8 136.4L228.7 139V143.8L230.3 146L228.8 150.6L226.4 151L224.5 146L227.2 142.3L227.5 139L225.8 136.1L229.1 135.3L229.4 133.8L230.6 131.7L229.3 130L227.3 129.6L224.4 132.7L222.1 134.1L217.5 137.3L213.2 136.8L212.7 138.1L209.1 138.2L205.8 141.2L204.4 146.6L204.3 148.7L201.9 149.4L197.5 153.8L194.6 153.6L192.6 151.8L190.9 149.9L188.4 148.8L185.3 148.6L185.6 148L182.5 147.6L180.5 149.5L177 150.8L174.5 152.4L171.8 152.9L170.3 151.3L169.8 151.8L167.5 151.5L167.7 150.2L165.8 147.9L163.4 145.2L161.4 142.6L160.2 139.2L159.4 138.1L159.3 136.4L160.5 134.8L160.3 133.1L161 130.4L161.9 129.7L162 126.9L161.8 125.2L162.2 122.4L163.1 119.9L164.5 117.7L164.2 115.4L164.6 114L165.2 113.4L163.9 111.6L162 110.6L160.5 109.2L158.9 108L158.1 107.9L155.6 107L154.5 107.5L153 107.7L151.7 107.3L150 106.9L149.2 107.6L147.4 108.3L144.8 108.5L142.3 107.9L141.4 108.3L140.9 107.7L139.3 107.8L138 108.9L137.4 108.7L134.6 111.1L131.8 112.9L131.3 114.1L131.6 115.4L130.3 117L128.9 117.4L129.1 118.1L128 118.8L125.9 120.4L125.7 121.4L127.1 122.7L130.2 123.1L132.4 124.4L134.3 125L137.6 125.1L138.3 123.6L140 124.2L140.7 126.2L140.3 126.6L139.4 125.6L138.7 126.6L141.3 129.5L143.5 131.5L144.5 133.6L147 136.2L148.8 138.2L147.4 139.4L148.9 140.3L148 142.3L147.9 144.3L148.6 145.6L150.3 146.2L151.5 148L152.7 146.4L152.4 144.6L153.8 145.7L154.1 147.6L156 148.4L158.1 149.7L159.6 151.2L159.7 152.6L159 153.7L160.1 155L163 156.4L163.6 157.4L163.9 156H166.3L167.7 156.7L170 157.2L171 159.7L172.8 160.1L173.6 159L174.4 162.8L177 162.5L177.9 161.6L179.4 160.7L176.9 157.3L177.5 156L178.8 155.7L181.1 154.1L182.3 151.9L184.8 151.5L187.5 153.3L188.5 155.4L189.9 155.8L188.4 157.5L189.4 161L191.2 162.8L193.4 166.2L194 171.6L192.8 173.2L193.9 179.1L192.7 182.8L194.7 184.3L192.5 187.6L190 191.6L187.2 192L185.8 194.3L186 197.5L183.9 198L184.7 200L180.8 202.5L177.7 203.9L178.1 206.5L175.9 210.6L174.9 214.5L173 215.5L174 221.3L172.9 223.1L176.3 225.8L178.4 222.9L179.7 225.7L176.8 230.4L177.5 233.1L176 234.6L177.5 233.1L176.8 230.4L172.4 234.4L170.8 238.9L173.8 245L172.1 247.8L176.2 250.4L180.7 254.5L182.7 259.2L185.1 262.1L191.1 274.8L197.3 286.5L202.7 294.9L201.9 296.7L204.7 302L209.3 305.9L220 312.8L231.6 319.2L232.3 321.8L238.2 325.5L240.3 334.5L241.8 344.9L241.7 359.1V372.3L242.6 384.6L240.7 392.4L242.8 400.2L242.3 405.5L245.5 415L245.4 424.5L244.2 434.7L243.6 445.2L241.5 445.4L243.9 452.7L247.2 459L246.1 463.3L248 474.9L249.5 483.7L253 484.6L251.9 476.9L255.9 478.5L257.7 491.2L251.3 489.1L253.3 499.3L250.6 504.8L258.8 506.6L255.4 511.4L255.6 517.4L260.6 528L264.8 532.1L265 535.7L268.3 539.5L275.8 543L283.2 547.2L289.4 549.2L291.4 549.1L289.6 543.4L293 541.2L294.7 539.7H298.9L301.1 540.1L296.4 536.5L292.3 530.2L293.2 527.3L296.7 524.8L297.2 517.6L301.9 514.1L301.7 508.5L296.5 507.2L290.1 502.7L290 498L292.9 494.9L297.6 494.8L297.8 491.5L296.6 485.4L299.5 481.5L303.6 479.6L301.1 476.4L298.9 478.4L294.9 476.5L292.4 470.3L293.9 468.7L299.5 471L304.5 470.1L307 467.9L305.2 464.8L305.1 460L303.1 456.2L308.9 456.8L319.1 455.5L326 452.1L329.3 443.8L329 440.6L325.1 437.8L325 433.3L317.2 427.8L316.9 424.5L320.8 428L324.4 427.8L329.8 430.5L332.5 429.9L336.7 431.1L342 427.6L343.6 423.6L346.5 419.9L348 413.9L351.2 410.9L355.1 405.9L359.6 394.7L363 391.2L363.8 388.1L364.1 381.7L362.8 378.2L363.1 373.4L367.2 367.1L373.2 362L379.2 360.2L382.8 357.3L391.3 354.9H397.2L398.3 351.1L402.5 348.3L403.1 341.8L408.2 333.5L408.7 325L410.3 322.4L410.6 318.3L411.7 308.4L410.7 296.5L412.1 291.8L413.5 291.7L417.4 286.2L420.7 279L428.4 270.2L431.1 266L433.1 255.5L432.1 251.6Z" fill="#FFC3C3" stroke="#FFC3C3" stroke-linejoin="round"/>
<path d="M124.3 102.6L122.4 101.1L120.6 98.9996H123.2L123.6 95.3996H128.8L133.9 95.4996L133.2 100.5L132 107.7H133.6L135 105.5L136 105.3L137.3 103.6L138.3 100.4L138 99.7996L138.9 97.4996L138.5 96.4996L139.8 93.7996L140.1 91.9996H139L139.1 91.0996L140.3 90.9996L141.5 92.5996L143.5 87.5996L144.7 84.8996L143.8 83.7996L145.6 79.8996L149.1 76.0996L149.7 72.9996L148.5 71.6996L145.1 72.1996L140.3 71.9996L134.3 73.4996L130.3 75.1996L129.1 76.9996L127.9 82.3996L126.1 86.0996L122.2 88.6996L118.6 89.7996L114.3 90.8996L110 91.4996L104.9 93.2996L103 90.6996L97.3998 88.9996L95.5998 85.7996L94.8998 82.1996L91.8998 77.4996L91.4998 72.4996L90.2998 69.3996L89.7998 65.9996L90.8998 62.8996L92.6998 54.2996L94.4998 49.7996L97.5998 44.1996L95.4998 44.3996L91.8998 42.9996L87.9998 40.9996L87.1998 37.9996L86.9998 33.4996L84.5998 29.8996L83.5998 26.1996L81.9998 21.7996L78.8998 19.2996L74.4998 19.3996L69.6998 24.3996L65.6998 22.4996L63.4998 20.5996L63.0998 17.0996L62.2998 13.7996L59.8998 10.9996L57.7998 8.9996L56.4998 6.79959H47.1998L46.3998 9.3996H42.0998H31.3998L20.6998 4.9996L13.5998 1.8996L14.5998 0.599609L7.59982 1.29959L1.2998 1.79959L1.49982 7.4996L2.19983 12.5996L2.89981 16.6996L3.69983 20.6996L6.2998 22.4996L9.19983 26.9996L8.19983 29.8996L5.49982 32.1996L3.39981 31.8996L2.7998 32.3996L5.09982 36.0996L7.99982 37.5996L8.99982 39.2996L9.89981 38.3996L12.9998 41.2996L15.0998 43.2996L15.1998 46.6996L13.9998 51.3996L16.4998 52.9996L19.7998 56.0996L22.6998 59.6996L23.3998 63.5996H24.3998L27.0998 61.2996L27.4998 60.0996L25.9998 57.2996L24.3998 54.3996L21.7998 54.1996L22.1998 50.7996L21.2998 47.7996L20.2998 44.9996L19.7998 39.0996L17.1998 35.8996L16.5998 33.5996L15.3998 31.9996V27.8996L14.3998 27.9996L14.2998 25.7996L13.5998 25.2996L13.1998 23.8996L10.4998 19.4996L9.39981 16.8996L10.3998 12.0996L10.4998 9.09961L12.2998 6.4996L14.6998 8.19962L16.5998 7.9996L19.6998 10.4996L18.7998 12.8996L19.1998 17.7996L20.6998 22.4996L20.2998 24.4996L21.9998 27.5996L24.2998 30.9996L26.9998 31.4996L27.2998 35.8996L29.6998 38.9996L32.1998 40.4996L30.3998 44.4996L31.0998 45.9996L35.1998 48.5996L37.0998 52.5996L41.5998 57.4996L45.3998 63.8996L46.6998 67.0996V69.5996L48.0998 72.4996L47.7998 74.6996L46.1998 76.2996L46.4998 78.0996L44.5998 78.7996L45.3998 81.8996L47.5998 85.8996L52.8998 89.4996L54.7998 92.3996L60.1998 94.3996L63.1998 94.7996L64.3998 96.4996L68.5998 99.4996L74.4998 102.5L78.4998 103.4L83.2998 106.3L87.2998 107.5L90.9998 109.2L93.8998 108.5L98.6998 106.1L101.8 105.7L106.2 107.3L108.8 109.4L114.3 116.3L114.7 114.4L115.5 112.9L114.8 111.7L118.1 106.5H125.2L125.6 104.4L124.8 104L124.3 102.6Z" fill="#FFC3C3" stroke="#FFC3C3" stroke-linejoin="round"/>
</svg>
