<svg width="441" height="190" viewBox="0 0 441 190" fill="none" xmlns="http://www.w3.org/2000/svg">
<path d="M289.8 121.8L289.4 117.6L290.4 116.5L285.1 109.5L283.1 105.9L280.8 102.4L276 92.5004L272.1 86.1004L269.3 79.4004L269.8 78.8004L274.4 87.9004L277.1 90.8004L279.1 92.8004L280.3 91.7004L281.5 88.4004L282.2 83.6004L283.5 81.1004L282.8 79.4004L278.9 70.2004L276.4 71.8004L272.2 71.4004L267.8 69.9004L266.7 72.0004L265 68.8004L261.1 68.0004L256.4 68.6004L254.3 70.4004L250.4 72.4004L247.8 71.4004L242.3 69.5004L237 67.8004L229.9 68.0004L228.4 65.9004L223 65.1004L221.2 64.0004H219.2L217.2 61.2004L209.9 59.9004L206.3 60.7004L202.6 63.7004L201.1 66.8004L202.6 71.6004L200.2 74.6004L197.7 76.2004L191.8 73.1004L184.1 70.4004L179.2 69.2004L176.4 63.5004L169.2 60.7004L164.7 59.6004L162.5 60.2004L156.1 58.0004L156 62.9004L153.4 64.7004L151.9 66.7004L148.2 69.2004L148.9 71.8004L148.5 74.5004L145.9 75.9004L143.3 64.6004L139.9 62.0004V60.5004L135.4 56.7004L134.8 51.9004L138 48.3004L139.1 43.0004L138.1 36.8004L139.1 33.5004L135.5 33.9004L133.3 32.4004H127.7L122.8 35.0004L120.1 34.0004L111.4 34.5004L102.5 35.7004L97.4996 37.7004L94.0996 40.3004L88.3997 41.5004L83.2996 45.0004L80.9996 44.9004L75.4996 43.5004L70.4996 43.9004L67.3997 41.2004H63.4996L61.6996 45.1004L57.9996 51.8004L53.9996 54.4004L48.5996 57.3004L45.0996 61.6004L44.1996 65.0004L42.0996 70.4004L43.1996 78.3004L38.4996 83.6004L35.7996 85.3004L31.3997 89.7004L26.2996 90.4004L23.4996 92.8004L23.3997 92.9004L19.7996 99.4004L16.0996 101.7L13.9996 105.7L13.7996 109L12.1996 112.8L10.2996 113.8L7.19965 117.8L5.19965 122.3L5.49963 124.5L3.59961 127.8L1.39966 129.5L1.09961 132.5H1.19965L13.5996 132L14.2996 129.7L16.5996 126.8L18.5996 118L26.3997 111.2L29.1996 103.1L30.8997 102.7L32.7996 97.7004L37.3997 97.0004L39.2996 97.9004H41.7996L43.5996 96.4004L46.9996 96.2004L46.8997 92.8004H47.6996V93.2004L47.5996 94.4004L67.8997 109.9L86.2996 123.8L104.9 137.6L106.2 140.6L109.6 142.4L112.2 143.5L112.3 147.5L118.4 146.9L126.2 144.1L142 131.6L160.6 119.4L169.4 122.2L172.5 125.7L176.4 123.3L181.8 119.8L204.1 132L226.5 144.2V141.5H232.8L232.3 128.8H254.4H275.8H297.6L296.6 127.5L289.8 121.8Z" fill="#ECE2BE" stroke="#ECE2BE" stroke-linejoin="round"/>
<path d="M438.7 95.5996L436 94.5996L435 88.8996L429.4 86.1996L426.6 82.2996L423.4 78.9996L427.3 73.1996L426.2 69.1996L421.9 68.0996L420.8 64.0996L418.1 58.9996L419.7 55.4996L417.2 54.5996L417.7 49.8996L418.2 41.8996L416.6 36.3996L412.7 36.1996L405.4 30.4996L401.1 29.7996L394.6 26.4996L390.8 25.8996L388.7 27.0996L385.2 26.8996L382.2 30.5996L377.8 31.7996L377.6 33.3996L369.7 35.0996L362.1 33.9996L357.8 30.6996L352.6 29.3996L350.1 24.5996L348.8 24.8996L345 21.4996L346.2 18.3996L344.3 16.4996L342.4 16.9996L337.1 21.6996L335.3 21.8996L331.6 20.9996L328.4 18.0996L327.2 15.6996L323.9 17.4996L326.8 24.7996L326.1 26.7996L326.8 24.7996L323.9 17.4996L327.2 15.6996L324.8 13.7996L320.6 12.2996V9.19962L319.3 6.9996L313.7 3.9996L308.3 4.29962L302.8 7.4996L298.3 6.8996L292.5 7.8996L284.7 5.4996L275 1.09961L266.5 1.29962L260.8 2.9996L255.2 6.9996L245.3 6.19962L243.7 10.9996L235.8 11.1996L230.7 17.2996L234.3 20.2996L232.3 25.2996L236.5 28.8996L240.2 35.2996L246 35.1996L251.4 38.6996L255 37.8996L255.9 35.1996L261.6 35.3996L266.2 38.8996L274.2 38.1996L277.3 34.4996L281.9 35.9996L285.1 35.3996L283.4 37.7996L285.7 40.7996L286.9 39.3996L288.1 37.8996L288 34.2996L289.9 35.5996L295.4 33.7996L298.4 34.9996H302.7L308.4 32.4996L311.2 32.6996L317.1 31.5996L315 35.6996L312.3 37.2996L313.5 41.9996L312.6 49.7996L301.6 56.4996L304.7 64.1996L303.8 65.1996L293.4 68.2996L299.5 74.6996L297.8 75.6996L297.1 77.8996L293.1 78.6996L292 80.9996L289.9 82.9996L283.8 81.9996L283.3 84.4996V86.6996L282.7 90.1996H285.4L288.6 94.5996L292.3 99.6996L294.8 104.4L296.5 105.9L298.2 109.2L298 110.6L300.1 114.3L303.1 115.6L305.9 118.1L309.5 125.1V128.9L310.4 133.3L314.4 139.4L316.9 140.4L321 144.8L322.9 150L326.1 155.3L329.1 157.6L329.7 160.1L331.5 162L332.4 164.8L332.8 167.5L332.2 168.8L332.9 171.7L331.8 172L333.5 174.6L334.8 179.3L335.8 181.2V184.6L337.4 188.4L341.3 188.7L343.1 187.8L345.8 188L346.6 186.3L348.1 185.9L349.2 184.2L350.6 183.8L355.3 183.5L358.8 182.3L361.9 179.6L363.6 180L366 179.7L370.7 175.2L379.5 172.2L384.8 169.5V167.4L385.7 164.5L389.6 162.8L392.1 162.5L395.7 160.3L398.8 160.9L401.3 159.1L401.1 156.6L403.2 155H406.6L407.8 153.7L408 150.6L411.3 148.2H413.9L414.3 147.4L413.3 143.2L413.9 140L414.9 138.5L417.4 138.8L419.1 134.4L421.2 132.4L422 130.6L423.6 126.8L423.5 125.4L421.4 124.6L419.8 122.5L416.9 118.8L413.6 117.7L409.5 116.8L406.2 114.5L403.3 110.2L402 105.2L402.5 104L402.7 101.4L402 100.8L400.7 103L397.7 106.9L394 111L390.7 115.3L387.4 115.1L382.8 114.9L378.6 115.9L378.3 114.2L377.3 114.5L376.1 112.1L374.6 112.5L372.8 111.3L371.8 109.7L370.9 107.6L369.2 105.8L368.2 103.7L368.6 101.6L368 98.8996L364 96.2996L362.8 93.9996L359.9 92.5996L357.2 87.0996L353.4 87.2996L351.7 84.1996L346.8 83.5996L350 77.4996L353.7 77.9996L356.9 78.3996L353.5 74.9996L353 71.6996L353.5 74.9996L356.9 78.3996L358.6 75.8996L362.3 77.9996L365.1 76.9996L370.2 85.3996L374.5 91.4996L380 93.2996L386.1 98.1996L393 100.3L398.1 97.1996L402.1 96.0996L404.9 97.1996L408.1 105L414.4 105.8L420.5 107.3L431 109.2L432.2 101.8L439.6 98.4996L438.7 95.5996ZM334.5 39.7996L329.8 31.9996L328.04 29.5296L329.8 31.9996L334.5 39.7996ZM341 58.7996L336.4 52.6996L336.9 47.6996L339.2 45.4996L338.2 41.6996L338.1 41.6496L338.2 41.6996L339.2 45.4996L336.9 47.6996L336.4 52.6996L341 58.7996ZM351.3 71.6996L351.5 67.0996L348 62.1996L341.4 58.9896L348 62.1996L351.5 67.0996L351.3 71.6996Z" fill="#ECE2BE" stroke="#ECE2BE" stroke-linejoin="round"/>
<path d="M230.3 8L229.2 8.7L229.3 10L231.2 12.9L235.1 9.5L237.1 7.60001L243.2 7.2L243.9 5.7L239.2 3.7L238.3 1.3L233.8 0.5L228.8 2.5L231.5 4.10001L230.3 8Z" fill="#ECE2BE" stroke="#ECE2BE" stroke-linejoin="round"/>
</svg>
