<svg width="385" height="398" viewBox="0 0 385 398" fill="none" xmlns="http://www.w3.org/2000/svg">
<path fill-rule="evenodd" clip-rule="evenodd" d="M384.4 101L384.2 99.3004H382.1L379.5 101.5L376.6 102.1L374.1 103L372.3 103.2L369.1 103.4L367.2 104.5L364.4 105L359.6 106.9L353.5 107.7L348.3 109.3H345.5L342.9 106.6L341.7 104L339.9 102.8L337.9 106.2L336.6 105.1L335.3 105.6L332.2 105.5L332 103.5L331.5 101.8L333.3 98.8004L335.2 96.0004L333.2 93.9004L330.7 90.2004L328.2 88.1004L326.6 85.9004L321.7 83.4004L317.8 83.3004L316.4 82.0004L313.2 83.5004L309.7 80.6004L308.2 85.3004L301.7 84.0004L301 89.5004L298.9 95.7004L295.7 98.9004L293.4 103.7L292.9 106.3L293.4 103.7L295.7 98.9004L298.9 95.7004L301 89.5004L301.7 84.0004L301 81.5004L302.9 72.1004L303.3 67.9004L304.9 65.9004L308.9 64.9004L311.5 61.3004L308.4 58.9004L306.2 57.3004L303.7 49.7004L302.6 43.2004L303.7 42.0004L301.6 35.8004H236.3L236.8 48.5004H230.5V51.2004L208.1 39.0004L185.8 26.8004L180.4 30.3004L176.5 32.7004L173.4 29.2004L164.6 26.4004L146 38.6004L130.2 51.1004L122.4 53.9004L116.3 54.5004L116.2 50.5004L113.6 49.4004L110.2 47.6004L108.9 44.6004L90.3002 30.8004L71.9002 16.9004L51.6002 1.40039L51.4002 11.1004L33.5002 10.8004L33.3002 27.1004L28.1002 27.6004L26.7002 30.9004L27.6002 40.1004L6.00018 40.0004L4.80017 42.2004L7.60016 44.9004L9.00018 47.9004L8.30017 51.1004L8.90021 54.3004L9.40021 60.6004L8.60016 66.5004L6.90021 69.7004L7.30017 73.1004L6.00018 76.4004L3.2002 80.8004L0.700195 82.0004L3.40021 84.3004L5.60016 89.3004L11.7002 89.1004L13.0002 87.6004L14.8002 87.5004L16.9002 89.0004L18.7002 89.1004L20.5002 88.0004L21.6002 89.8004L19.2002 91.3004L16.8002 91.2004L14.4002 89.8004L12.3002 91.3004H11.3002L9.90021 92.2004L4.90021 92.1004L5.7002 97.0004L6.00018 98.3004L7.7002 99.7004V100.6L8.90021 102.4L11.3002 102.9L14.2002 105.5L15.8002 106.6L16.6002 108L17.3002 110.8L18.6002 112L20.1002 112.9L22.2002 115.4L24.6002 119.1L25.3002 123.8L26.2002 126.1L29.1002 129.6L33.2002 132.1L34.7002 132.6L36.0002 130.6L36.3002 128.7L38.9002 125.3L41.5002 122.3L40.0002 122.6L41.5002 122.3L38.9002 125.3L36.3002 128.7L36.0002 130.6L34.7002 132.6L38.4002 136.7L43.2002 140.2L48.3002 145L54.0002 148.1L55.5002 148L56.6002 148.2L62.2002 145.8L66.1002 144L72.7002 142.9L76.3002 142.8L80.2002 144.1L82.8002 144L87.8002 145.8L92.8002 143.9L96.0002 141.8L104.7 138L109.3 136.7L113.9 135.9H123.1L127 140.1L128.9 144.7L131.9 148.6L136.4 148.8L138.6 147.4L140.7 147.7L146.5 145.4V147.2L147.9 148.1L149 150.9L151.6 152L153.8 156.2L153 161.2L151.1 168.4L152.1 169.3L151 174.1L149.7 178.7L148.4 180.7L148.2 182.8L151.6 189.4L155.3 194.7L161.1 201.1L165.7 207.8L167.1 212.6L167.9 214.6L167.4 215.8L170.2 219.8L171.3 224.1L172.9 230.2L171.2 232.8L170.9 234.1L172.2 237.9L173.7 241.8L175.3 244L175.6 247.6L174.9 252.4L173.1 255.2L169.8 259.4L168.5 262L166.6 267.7L166.3 270.4L164.3 276.3L163.4 281.8L163.9 285.8L164.1 290.7L168.5 296.9L169.6 300.9L172.4 308.6L175.1 313.8L177.2 316.4L177.8 319.9V327.5L179.4 337.3L180.6 341.9L181.6 348.1L183.5 352.8L187.4 357.6L190.9 365.8V365.9L193.4 371.2L196.6 377.2L196.4 382L194.7 383.2L196.1 387.4L195.9 391.2L196.5 392.9L196.8 392L198.9 394.9L200.7 395L202.8 397.3L205.2 397.1L208.7 394.7L213.3 393.7L218.9 391.2L221.1 391.5L224.4 390.7L230.1 391.9L232.8 390.7L236 391.7L236.8 389.9L239.5 389.6L245.3 387.1L249.6 384.2L253.7 380.4L260.4 373.9L263.8 369.3L265.6 366.1L268.1 362.8L269.3 361.9L273.2 358.7L274.8 355.8L275.9 350.6L277.6 345.9L278.3 342.6L276.9 342.1L276.6 339.5L279.2 337.1L286 333.7L290.6 331.5L293.1 329.2L294 326.6L292.8 325.5L293.9 322.5L294.4 316.3L293.4 316.6V314.7L292.6 311L290.2 306.2L290.9 301.6L293.2 300.2L297.3 295.6L299.5 294.5L306.2 287.7L312.6 284.6L317.8 282.1L321.5 278.2L323.9 273.8L325.8 269.2L324.9 266.1L325.1 256.2L324.7 250.6L325.1 244.3L324.3 241.4L322.3 240L320.1 233.7L318.3 229.8L318.7 226.7L318.4 224.8L320.1 220.9L319.9 219.3L316.4 217L316.1 213.4L318.9 205.5L321.1 203.4L322.3 199.2L324.1 196.6L325 192.1L327.1 191.7L328.5 189L332.5 186.5L333.8 185L335.1 181.6L341.2 173.9L346.5 169.1L354.8 162.7L360.4 157.6L366.8 148.9L371.5 141.8L376.1 132.5L379.3 124.3L381.8 117.2L383.1 110.4L384.2 108.1L384 104.7L384.4 101ZM214.6 291.9L213.7 314.6L208.3 314.8L207.7 333.3L208.3 314.8L213.7 314.6L214.6 291.9L218.7 291.7L214.6 291.9ZM277.6 179.8L280.2 176.1L283.7 175.2L286.1 173.7L289 174.9L289.3 175.4L290.7 177.8L290.3 182.5L287.5 185.3L285.6 188.2L287.8 190.4L284.6 192L283.9 191.2L280.7 191.6L278.2 193L276.6 190.6L277.7 186.1L277.9 182.3L271.7 182.2L277.9 182.3L277.6 179.8ZM295 267.4L293.1 264.9L292.1 266.5L291.3 265.1L291.4 262.8L290.2 260.9L290.3 258.1L288.8 253.4L290.5 249.9L290.4 242.2L288.5 238.1L288.7 237.4L287.6 235.7L282.2 234.5L279 232.6L275.5 231.5L273.3 230.4L273 230.2L273.5 231.3L272.5 231.7L271.3 230.3L269.4 229.8L269.8 228.5L270 227.4L268.5 225.7L267.8 222.2L264.4 218.7L262.6 214.2L263.6 211.5L262.1 207.9L263.2 197.7L263.3 197.8L265.3 203.9L265.2 204.2L264.9 206.9L266 207.8L265.8 210.5L266.8 213.1L265.5 215.5L270 219.8L270.3 223.7L273 230.2L273.3 230.4L275.5 231.5L279 232.6L282.2 234.5L287.6 235.7L288.7 237.4L289.1 236.2L291.9 239.6L292.2 246.3L294 248.7V248.8L292.4 254.8L293.1 262.1V262.9L294.2 263.2L295.2 266.6L295 267.4Z" fill="#FCE0D9"/>
<path d="M214.6 291.9L213.7 314.6L208.3 314.8L207.7 333.3L208.3 314.8L213.7 314.6L214.6 291.9ZM214.6 291.9L218.7 291.7L214.6 291.9ZM384.4 101L384.2 99.3004H382.1L379.5 101.5L376.6 102.1L374.1 103L372.3 103.2L369.1 103.4L367.2 104.5L364.4 105L359.6 106.9L353.5 107.7L348.3 109.3H345.5L342.9 106.6L341.7 104L339.9 102.8L337.9 106.2L336.6 105.1L335.3 105.6L332.2 105.5L332 103.5L331.5 101.8L333.3 98.8004L335.2 96.0004L333.2 93.9004L330.7 90.2004L328.2 88.1004L326.6 85.9004L321.7 83.4004L317.8 83.3004L316.4 82.0004L313.2 83.5004L309.7 80.6004L308.2 85.3004L301.7 84.0004L301 89.5004L298.9 95.7004L295.7 98.9004L293.4 103.7L292.9 106.3L293.4 103.7L295.7 98.9004L298.9 95.7004L301 89.5004L301.7 84.0004L301 81.5004L302.9 72.1004L303.3 67.9004L304.9 65.9004L308.9 64.9004L311.5 61.3004L308.4 58.9004L306.2 57.3004L303.7 49.7004L302.6 43.2004L303.7 42.0004L301.6 35.8004H236.3L236.8 48.5004H230.5V51.2004L208.1 39.0004L185.8 26.8004L180.4 30.3004L176.5 32.7004L173.4 29.2004L164.6 26.4004L146 38.6004L130.2 51.1004L122.4 53.9004L116.3 54.5004L116.2 50.5004L113.6 49.4004L110.2 47.6004L108.9 44.6004L90.3002 30.8004L71.9002 16.9004L51.6002 1.40039L51.4002 11.1004L33.5002 10.8004L33.3002 27.1004L28.1002 27.6004L26.7002 30.9004L27.6002 40.1004L6.00018 40.0004L4.80017 42.2004L7.60016 44.9004L9.00018 47.9004L8.30017 51.1004L8.90021 54.3004L9.40021 60.6004L8.60016 66.5004L6.90021 69.7004L7.30017 73.1004L6.00018 76.4004L3.2002 80.8004L0.700195 82.0004L3.40021 84.3004L5.60016 89.3004L11.7002 89.1004L13.0002 87.6004L14.8002 87.5004L16.9002 89.0004L18.7002 89.1004L20.5002 88.0004L21.6002 89.8004L19.2002 91.3004L16.8002 91.2004L14.4002 89.8004L12.3002 91.3004H11.3002L9.90021 92.2004L4.90021 92.1004L5.7002 97.0004L6.00018 98.3004L7.7002 99.7004V100.6L8.90021 102.4L11.3002 102.9L14.2002 105.5L15.8002 106.6L16.6002 108L17.3002 110.8L18.6002 112L20.1002 112.9L22.2002 115.4L24.6002 119.1L25.3002 123.8L26.2002 126.1L29.1002 129.6L33.2002 132.1L34.7002 132.6L36.0002 130.6L36.3002 128.7L38.9002 125.3L41.5002 122.3L40.0002 122.6L41.5002 122.3L38.9002 125.3L36.3002 128.7L36.0002 130.6L34.7002 132.6L38.4002 136.7L43.2002 140.2L48.3002 145L54.0002 148.1L55.5002 148L56.6002 148.2L62.2002 145.8L66.1002 144L72.7002 142.9L76.3002 142.8L80.2002 144.1L82.8002 144L87.8002 145.8L92.8002 143.9L96.0002 141.8L104.7 138L109.3 136.7L113.9 135.9H123.1L127 140.1L128.9 144.7L131.9 148.6L136.4 148.8L138.6 147.4L140.7 147.7L146.5 145.4V147.2L147.9 148.1L149 150.9L151.6 152L153.8 156.2L153 161.2L151.1 168.4L152.1 169.3L151 174.1L149.7 178.7L148.4 180.7L148.2 182.8L151.6 189.4L155.3 194.7L161.1 201.1L165.7 207.8L167.1 212.6L167.9 214.6L167.4 215.8L170.2 219.8L171.3 224.1L172.9 230.2L171.2 232.8L170.9 234.1L172.2 237.9L173.7 241.8L175.3 244L175.6 247.6L174.9 252.4L173.1 255.2L169.8 259.4L168.5 262L166.6 267.7L166.3 270.4L164.3 276.3L163.4 281.8L163.9 285.8L164.1 290.7L168.5 296.9L169.6 300.9L172.4 308.6L175.1 313.8L177.2 316.4L177.8 319.9V327.5L179.4 337.3L180.6 341.9L181.6 348.1L183.5 352.8L187.4 357.6L190.9 365.8V365.9L193.4 371.2L196.6 377.2L196.4 382L194.7 383.2L196.1 387.4L195.9 391.2L196.5 392.9L196.8 392L198.9 394.9L200.7 395L202.8 397.3L205.2 397.1L208.7 394.7L213.3 393.7L218.9 391.2L221.1 391.5L224.4 390.7L230.1 391.9L232.8 390.7L236 391.7L236.8 389.9L239.5 389.6L245.3 387.1L249.6 384.2L253.7 380.4L260.4 373.9L263.8 369.3L265.6 366.1L268.1 362.8L269.3 361.9L273.2 358.7L274.8 355.8L275.9 350.6L277.6 345.9L278.3 342.6L276.9 342.1L276.6 339.5L279.2 337.1L286 333.7L290.6 331.5L293.1 329.2L294 326.6L292.8 325.5L293.9 322.5L294.4 316.3L293.4 316.6V314.7L292.6 311L290.2 306.2L290.9 301.6L293.2 300.2L297.3 295.6L299.5 294.5L306.2 287.7L312.6 284.6L317.8 282.1L321.5 278.2L323.9 273.8L325.8 269.2L324.9 266.1L325.1 256.2L324.7 250.6L325.1 244.3L324.3 241.4L322.3 240L320.1 233.7L318.3 229.8L318.7 226.7L318.4 224.8L320.1 220.9L319.9 219.3L316.4 217L316.1 213.4L318.9 205.5L321.1 203.4L322.3 199.2L324.1 196.6L325 192.1L327.1 191.7L328.5 189L332.5 186.5L333.8 185L335.1 181.6L341.2 173.9L346.5 169.1L354.8 162.7L360.4 157.6L366.8 148.9L371.5 141.8L376.1 132.5L379.3 124.3L381.8 117.2L383.1 110.4L384.2 108.1L384 104.7L384.4 101ZM277.6 179.8L280.2 176.1L283.7 175.2L286.1 173.7L289 174.9L289.3 175.4L290.7 177.8L290.3 182.5L287.5 185.3L285.6 188.2L287.8 190.4L284.6 192L283.9 191.2L280.7 191.6L278.2 193L276.6 190.6L277.7 186.1L277.9 182.3L271.7 182.2L277.9 182.3L277.6 179.8ZM295 267.4L293.1 264.9L292.1 266.5L291.3 265.1L291.4 262.8L290.2 260.9L290.3 258.1L288.8 253.4L290.5 249.9L290.4 242.2L288.5 238.1L288.7 237.4L287.6 235.7L282.2 234.5L279 232.6L275.5 231.5L273.3 230.4L273 230.2L273.5 231.3L272.5 231.7L271.3 230.3L269.4 229.8L269.8 228.5L270 227.4L268.5 225.7L267.8 222.2L264.4 218.7L262.6 214.2L263.6 211.5L262.1 207.9L263.2 197.7L263.3 197.8L265.3 203.9L265.2 204.2L264.9 206.9L266 207.8L265.8 210.5L266.8 213.1L265.5 215.5L270 219.8L270.3 223.7L273 230.2L273.3 230.4L275.5 231.5L279 232.6L282.2 234.5L287.6 235.7L288.7 237.4L289.1 236.2L291.9 239.6L292.2 246.3L294 248.7V248.8L292.4 254.8L293.1 262.1V262.9L294.2 263.2L295.2 266.6L295 267.4Z" stroke="#FCE0D9" stroke-linejoin="round"/>
</svg>
